<svg viewBox="0 0 705 733" xmlns="http://www.w3.org/2000/svg">
  <path d="M 573,717 L 573,719 574,720 574,723 576,723 576,717 Z" fill="none" stroke="black" stroke-width="1"/>
  <path d="M 105,715 L 105,721 106,721 107,722 108,721 109,721 109,720 110,719 110,718 109,717 109,716 108,715 Z" fill="none" stroke="black" stroke-width="1"/>
  <path d="M 572,714 L 571,715 570,715 569,716 565,716 564,717 564,720 563,721 562,721 561,720 561,717 553,717 552,716 548,716 547,717 546,717 545,716 542,716 541,717 541,723 542,724 544,724 545,723 548,723 549,724 552,724 553,723 555,723 556,722 557,723 559,723 560,724 569,724 569,720 568,719 569,718 568,717 570,715 571,715 572,714 576,714 577,715 578,714 585,714 Z" fill="none" stroke="black" stroke-width="1"/>
  <path d="M 168,714 L 167,715 162,715 162,719 163,720 163,721 170,721 171,720 171,716 170,715 169,715 Z" fill="none" stroke="black" stroke-width="1"/>
  <path d="M 79,714 L 78,715 76,715 76,716 77,717 77,718 76,719 76,720 75,721 77,721 78,722 79,721 80,721 80,715 Z" fill="none" stroke="black" stroke-width="1"/>
  <path d="M 81,713 L 104,713 Z" fill="none" stroke="black" stroke-width="1"/>
  <path d="M 47,713 L 47,714 46,715 46,720 47,721 51,721 51,719 52,718 51,717 51,715 49,715 Z" fill="none" stroke="black" stroke-width="1"/>
  <path d="M 694,712 L 694,713 693,714 691,714 690,715 689,714 676,714 675,715 674,714 673,715 672,715 671,714 667,714 666,715 664,715 663,714 633,714 632,715 627,715 626,714 598,714 597,715 596,714 595,714 595,715 594,716 591,716 590,717 589,717 588,716 586,716 585,717 581,717 581,720 582,721 582,723 591,723 592,724 593,723 594,723 595,722 595,717 594,716 596,714 597,715 598,714 626,714 627,715 632,715 633,714 663,714 664,715 666,715 667,714 671,714 672,715 673,715 674,714 675,715 676,714 689,714 690,715 691,714 694,714 Z" fill="none" stroke="black" stroke-width="1"/>
  <path d="M 81,710 L 104,710 Z" fill="none" stroke="black" stroke-width="1"/>
  <path d="M 81,708 L 104,708 Z" fill="none" stroke="black" stroke-width="1"/>
  <path d="M 107,707 L 107,711 108,711 109,712 165,712 166,711 166,708 165,707 Z" fill="none" stroke="black" stroke-width="1"/>
  <path d="M 49,707 L 49,708 48,709 49,710 49,711 50,711 51,712 76,712 77,711 78,711 78,707 Z" fill="none" stroke="black" stroke-width="1"/>
  <path d="M 649,706 L 649,709 648,710 649,710 Z" fill="none" stroke="black" stroke-width="1"/>
  <path d="M 681,705 L Z" fill="none" stroke="black" stroke-width="1"/>
  <path d="M 613,705 L Z" fill="none" stroke="black" stroke-width="1"/>
  <path d="M 82,705 L 81,706 80,706 81,706 82,705 104,705 105,706 104,705 Z" fill="none" stroke="black" stroke-width="1"/>
  <path d="M 639,704 L 639,705 Z" fill="none" stroke="black" stroke-width="1"/>
  <path d="M 663,702 L 663,708 662,709 662,710 663,709 663,707 664,706 666,706 667,705 666,706 664,706 663,705 664,704 665,704 666,703 665,702 Z" fill="none" stroke="black" stroke-width="1"/>
  <path d="M 631,702 L 631,707 634,707 634,706 635,705 635,704 634,703 634,702 Z" fill="none" stroke="black" stroke-width="1"/>
  <path d="M 13,702 L 12,703 11,703 8,706 8,708 7,709 7,716 8,717 8,719 12,723 14,723 15,724 21,724 22,723 24,723 25,722 26,722 27,721 27,720 28,719 28,718 29,717 29,716 30,715 30,711 29,710 29,708 28,707 28,706 24,702 22,702 23,702 28,707 28,708 29,709 29,710 30,711 30,715 29,716 29,717 27,719 27,720 25,722 24,722 23,723 22,723 21,724 15,724 14,723 13,723 8,718 8,717 7,716 7,709 8,708 8,707 12,703 13,703 14,702 Z" fill="none" stroke="black" stroke-width="1"/>
  <path d="M 686,700 L 686,704 687,704 686,703 686,701 687,700 689,702 689,703 690,704 690,703 693,700 694,701 694,708 693,709 692,709 690,707 691,706 692,706 691,706 690,707 689,706 687,708 687,709 686,710 684,710 681,707 679,707 679,708 677,710 671,710 669,708 669,705 669,709 670,710 678,710 679,709 679,708 680,707 681,707 682,708 682,709 683,710 687,710 688,709 688,707 689,706 690,707 690,708 691,709 694,709 694,700 692,700 691,701 691,702 690,703 689,702 689,701 688,700 Z" fill="none" stroke="black" stroke-width="1"/>
  <path d="M 648,700 L 648,701 647,702 647,708 647,705 648,704 647,703 647,702 649,700 650,701 650,702 651,703 650,704 651,703 653,703 653,701 654,700 656,702 656,704 655,705 655,708 654,709 653,709 652,708 652,707 651,706 651,707 652,708 652,709 653,710 654,709 655,710 655,705 656,704 656,702 655,701 655,700 653,700 653,702 652,703 650,701 650,700 Z" fill="none" stroke="black" stroke-width="1"/>
  <path d="M 661,699 L 660,700 660,709 660,701 662,699 666,699 668,701 669,700 670,700 672,702 672,707 673,708 674,708 675,707 676,707 677,706 677,705 678,704 678,702 680,700 681,700 682,701 682,702 683,703 683,705 684,706 684,705 683,704 683,703 682,702 682,700 679,700 678,701 678,703 677,704 677,705 674,708 672,706 672,702 671,701 671,700 667,700 666,699 Z" fill="none" stroke="black" stroke-width="1"/>
  <path d="M 639,699 L 638,700 638,702 638,701 640,699 644,699 645,700 644,701 643,701 642,702 641,702 641,704 641,703 643,701 644,702 644,701 646,699 Z" fill="none" stroke="black" stroke-width="1"/>
  <path d="M 630,699 L 629,700 629,702 629,701 631,699 634,699 636,701 636,700 635,700 634,699 Z" fill="none" stroke="black" stroke-width="1"/>
  <path d="M 602,699 L 600,701 600,703 599,704 599,706 600,707 600,708 602,710 607,710 608,709 610,709 611,710 614,707 617,710 621,710 621,708 622,707 622,705 623,704 624,705 624,708 626,710 635,710 637,708 639,710 646,710 645,709 645,708 642,708 641,707 642,706 644,706 644,704 644,705 643,706 641,706 641,708 644,708 645,709 644,710 640,710 638,708 636,708 634,710 630,710 629,709 629,706 628,707 627,707 626,706 627,705 627,703 627,704 626,705 626,706 627,707 627,708 626,709 624,707 624,702 622,702 622,706 621,707 619,705 619,701 621,699 625,699 627,701 627,700 626,699 620,699 619,700 619,706 620,706 621,707 621,709 620,710 618,710 616,708 615,708 614,707 613,707 611,709 608,709 607,710 603,710 599,706 599,704 600,703 600,702 603,699 606,699 608,701 607,702 603,702 602,703 602,706 604,708 605,708 606,707 606,706 607,705 611,705 611,703 612,702 612,701 613,700 614,700 616,702 616,704 617,705 617,706 617,704 616,703 616,701 615,700 612,700 612,702 611,703 611,704 610,705 609,705 608,704 607,705 606,704 606,706 604,708 603,707 603,706 602,705 602,704 604,702 608,702 609,701 607,699 Z" fill="none" stroke="black" stroke-width="1"/>
  <path d="M 543,699 L 542,700 541,700 541,704 542,705 541,706 541,709 542,710 548,710 548,706 549,705 550,706 550,701 551,700 552,701 552,706 553,707 553,708 554,708 555,707 555,706 556,705 556,701 557,700 558,700 560,702 560,704 560,701 561,700 563,702 563,703 562,704 563,703 563,701 564,700 565,701 565,705 567,707 567,708 566,709 563,706 562,707 562,708 561,709 557,709 556,710 552,710 551,709 550,709 551,710 557,710 558,709 560,709 561,710 562,709 562,708 563,707 565,709 570,709 571,710 571,707 572,706 573,707 573,708 575,710 586,710 587,709 589,709 589,707 590,706 591,707 591,708 592,709 595,709 595,700 593,700 593,701 592,702 591,702 589,700 586,700 585,699 580,699 579,700 578,700 577,699 576,700 574,700 572,702 571,701 571,700 566,700 565,701 564,700 563,701 562,700 556,700 556,705 555,706 555,707 554,708 553,707 553,706 552,705 552,700 548,700 547,699 Z" fill="none" stroke="black" stroke-width="1"/>
  <path d="M 12,699 L 10,701 9,701 6,704 6,705 5,706 5,709 4,710 4,716 5,717 5,719 6,720 6,721 10,725 12,725 13,726 15,726 16,727 21,727 22,726 24,726 25,725 26,725 27,724 28,724 29,723 29,722 31,720 31,718 32,717 32,714 33,713 33,712 32,711 32,707 31,706 31,705 26,700 25,700 24,699 21,699 20,700 19,699 17,699 17,713 19,713 19,712 20,711 20,700 21,699 23,699 24,700 25,700 31,706 31,707 32,708 32,711 33,712 33,713 32,714 32,717 31,718 31,719 30,720 30,721 27,724 26,724 24,726 22,726 21,727 16,727 15,726 13,726 12,725 11,725 6,720 6,719 5,718 5,717 4,716 4,710 5,709 5,707 6,706 6,705 10,701 11,701 13,699 15,699 Z" fill="none" stroke="black" stroke-width="1"/>
  <path d="M 250,660 L Z" fill="none" stroke="black" stroke-width="1"/>
  <path d="M 154,639 L 154,649 Z" fill="none" stroke="black" stroke-width="1"/>
  <path d="M 332,637 L 332,639 332,638 333,637 350,637 Z" fill="none" stroke="black" stroke-width="1"/>
  <path d="M 398,634 L 398,635 399,634 Z" fill="none" stroke="black" stroke-width="1"/>
  <path d="M 306,634 L 307,634 Z" fill="none" stroke="black" stroke-width="1"/>
  <path d="M 155,630 L 155,631 Z" fill="none" stroke="black" stroke-width="1"/>
  <path d="M 355,614 L 355,639 355,638 356,637 375,637 376,638 376,639 376,638 377,637 378,638 378,639 378,638 379,637 398,637 399,638 398,639 400,637 401,638 401,639 401,638 402,637 419,637 356,637 355,636 355,625 356,624 375,624 376,625 375,626 376,627 376,633 375,634 357,634 374,634 375,635 376,634 396,634 379,634 378,633 378,625 379,624 397,624 398,625 398,632 398,622 399,621 384,621 383,622 381,622 380,621 379,622 378,621 378,614 378,621 377,622 376,621 372,621 371,622 370,622 369,621 362,621 361,622 358,622 357,621 356,622 355,621 Z" fill="none" stroke="black" stroke-width="1"/>
  <path d="M 309,614 L 309,623 308,624 309,625 309,634 329,634 329,625 330,624 331,624 332,625 332,632 332,625 333,624 351,624 352,625 352,639 353,638 352,637 352,622 353,621 352,620 352,614 352,621 351,622 350,621 348,621 347,622 346,622 345,621 335,621 334,622 332,620 332,614 332,620 331,621 332,622 332,623 331,624 330,624 329,623 329,614 329,621 328,622 327,622 326,621 325,622 324,621 320,621 319,622 318,621 317,621 316,622 315,622 314,621 311,621 310,622 309,621 Z" fill="none" stroke="black" stroke-width="1"/>
  <path d="M 170,614 L 169,615 169,620 168,621 169,621 170,622 170,623 169,624 168,624 169,625 169,633 168,634 170,636 169,637 168,637 169,638 169,645 168,646 169,647 169,648 168,649 169,648 170,649 170,651 169,652 170,651 170,650 171,649 189,649 190,650 190,655 191,656 190,657 191,656 190,655 190,651 192,649 193,650 193,657 193,650 194,649 212,649 213,650 213,657 213,651 215,649 216,650 216,657 216,650 217,649 236,649 237,650 237,655 237,650 238,649 239,650 239,654 240,655 239,654 239,650 240,649 259,649 260,650 260,654 260,650 261,649 263,651 263,653 263,651 262,650 263,649 282,649 283,650 283,652 283,650 284,649 285,650 285,651 286,652 285,651 285,650 286,649 305,649 306,650 306,651 308,649 309,650 310,649 327,649 310,649 309,648 310,647 327,647 310,647 309,646 309,638 310,637 328,637 329,638 329,640 329,637 309,637 309,646 308,647 306,645 306,637 288,637 305,637 306,638 306,646 305,647 287,647 286,646 286,639 285,638 286,637 286,634 285,633 286,632 286,626 285,625 286,624 305,624 306,625 306,632 306,622 307,621 306,620 306,614 306,623 305,624 287,624 286,623 286,614 286,620 285,621 284,621 283,620 283,614 283,621 282,622 281,621 280,621 279,622 277,622 276,621 261,621 260,620 260,614 260,621 259,622 257,622 256,621 255,622 246,622 245,621 244,621 243,622 241,622 239,620 239,614 239,620 238,621 237,620 237,614 237,621 236,622 235,621 218,621 217,622 216,621 216,614 216,620 215,621 214,621 213,620 213,614 213,620 212,621 210,621 209,622 206,622 205,621 195,621 194,622 193,621 193,614 193,620 192,621 183,621 182,622 181,622 180,621 175,621 174,622 171,622 169,620 169,615 Z" fill="none" stroke="black" stroke-width="1"/>
  <path d="M 166,614 L 166,628 165,629 159,629 165,629 166,630 164,632 159,632 164,632 165,631 166,632 166,651 166,632 165,631 166,630 Z" fill="none" stroke="black" stroke-width="1"/>
  <path d="M 157,614 L 157,651 Z" fill="none" stroke="black" stroke-width="1"/>
  <path d="M 152,614 L 152,651 Z" fill="none" stroke="black" stroke-width="1"/>
  <path d="M 150,613 L 150,652 Z" fill="none" stroke="black" stroke-width="1"/>
  <path d="M 108,519 L 107,520 107,544 108,545 108,547 107,548 107,572 108,573 108,575 107,576 107,600 108,601 108,603 107,604 107,642 108,643 108,645 107,646 107,670 108,671 108,672 107,673 107,675 107,674 108,673 114,673 116,675 116,674 115,673 115,671 116,670 115,669 115,668 116,667 116,654 115,653 115,650 116,649 115,648 116,649 115,650 115,653 116,654 116,667 115,668 115,669 114,670 113,670 112,671 111,670 108,670 107,669 107,647 108,646 112,646 113,645 114,646 116,646 115,645 115,643 116,642 115,641 115,634 116,633 116,627 115,626 115,620 116,619 116,613 115,612 115,605 116,604 115,603 115,592 116,591 116,585 115,584 115,580 116,579 116,578 115,577 116,576 115,575 115,573 116,572 115,571 115,569 116,568 115,567 116,566 116,557 115,556 115,555 116,554 116,553 115,552 115,550 115,552 116,553 116,554 115,555 115,556 116,557 116,566 115,567 116,568 115,569 115,572 114,573 109,573 107,571 107,549 109,547 112,547 113,548 116,548 115,547 114,548 113,548 112,547 109,547 108,546 109,545 115,545 116,544 115,543 115,536 116,535 116,529 115,528 115,522 116,521 115,520 109,520 Z" fill="none" stroke="black" stroke-width="1"/>
  <path d="M 207,481 L 207,501 206,502 206,506 205,507 205,512 204,513 204,516 203,517 203,521 202,522 202,529 203,530 203,533 204,534 204,535 205,536 205,538 206,539 206,540 208,542 208,543 216,551 217,551 219,553 220,553 221,554 222,554 223,555 224,555 225,556 226,556 227,557 229,557 230,558 232,558 233,559 235,559 236,560 240,560 241,561 253,561 254,560 258,560 260,558 261,558 262,557 263,557 265,555 266,555 268,553 269,553 271,551 272,551 274,549 275,549 276,548 277,548 278,547 279,547 280,546 283,546 284,545 285,545 286,544 289,544 290,543 302,543 303,544 306,544 307,545 308,545 309,546 311,546 314,549 315,549 318,552 318,553 321,556 321,557 322,558 322,559 323,560 323,561 324,562 324,566 325,567 325,603 360,603 360,600 359,599 359,593 358,592 358,587 357,586 357,583 356,582 356,579 355,578 355,576 354,575 354,573 353,572 353,569 352,568 352,567 351,566 351,564 350,563 350,562 349,561 349,560 348,559 348,557 346,555 346,553 345,552 345,551 343,549 343,548 342,547 342,546 340,544 340,543 338,541 338,540 336,538 336,537 332,533 332,532 323,523 318,523 317,524 314,524 313,525 312,525 311,526 308,526 307,527 305,527 304,528 302,528 301,529 298,529 297,530 295,530 294,531 292,531 291,532 287,532 286,533 285,533 284,534 282,534 281,535 278,535 277,536 276,536 275,537 273,537 272,538 269,538 268,539 267,539 266,540 264,540 263,541 260,541 259,542 257,542 256,543 243,543 241,541 239,541 238,540 237,540 234,537 233,537 228,532 228,531 226,529 226,528 224,526 224,524 223,523 223,522 222,521 222,518 221,517 221,508 222,507 222,504 223,503 223,502 224,501 224,499 225,498 225,497 227,495 227,493 230,490 230,489 237,482 237,481 230,488 230,489 228,491 228,492 227,493 227,494 225,496 225,497 224,498 224,500 223,501 223,503 222,504 222,507 221,508 221,517 222,518 222,521 223,522 223,524 224,525 224,526 225,527 225,528 226,529 226,530 228,532 228,533 232,537 233,537 236,540 237,540 238,541 240,541 241,542 242,542 243,543 256,543 257,542 259,542 260,541 263,541 264,540 266,540 267,539 269,539 270,538 272,538 273,537 275,537 276,536 278,536 279,535 281,535 282,534 284,534 285,533 287,533 288,532 291,532 292,531 294,531 295,530 298,530 299,529 301,529 302,528 305,528 306,527 307,527 308,526 311,526 312,525 313,525 314,524 317,524 318,523 322,523 333,534 333,535 336,538 336,539 339,542 339,543 340,544 340,545 342,547 342,548 343,549 343,550 345,552 345,553 346,554 346,555 347,556 347,557 348,558 348,559 349,560 349,561 350,562 350,564 351,565 351,566 352,567 352,568 353,569 353,572 354,573 354,575 355,576 355,578 356,579 356,582 357,583 357,586 358,587 358,592 359,593 359,599 360,600 360,602 359,603 326,603 325,602 325,567 324,566 324,562 323,561 323,559 322,558 322,557 321,556 321,555 318,552 318,551 316,549 315,549 312,546 310,546 309,545 307,545 306,544 303,544 302,543 290,543 289,544 286,544 285,545 283,545 282,546 279,546 277,548 276,548 275,549 273,549 271,551 270,551 268,553 267,553 265,555 264,555 262,557 261,557 260,558 259,558 257,560 254,560 253,561 241,561 240,560 236,560 235,559 233,559 232,558 230,558 229,557 227,557 225,555 224,555 223,554 222,554 221,553 220,553 218,551 217,551 207,541 207,540 206,539 206,538 205,537 205,536 204,535 204,534 203,533 203,530 202,529 202,522 203,521 203,517 204,516 204,513 205,512 205,507 206,506 206,502 207,501 Z" fill="none" stroke="black" stroke-width="1"/>
  <path d="M 161,473 L 161,477 162,478 162,609 165,609 165,478 162,478 161,477 161,474 162,473 Z" fill="none" stroke="black" stroke-width="1"/>
  <path d="M 164,443 L 163,444 162,444 162,471 163,471 164,472 243,472 244,471 244,446 243,445 243,444 242,444 241,443 Z" fill="none" stroke="black" stroke-width="1"/>
  <path d="M 125,422 L 124,423 118,423 118,433 117,434 118,435 118,448 119,449 119,450 118,451 118,475 119,476 119,478 118,479 118,503 124,503 125,504 126,503 119,503 118,502 118,479 119,478 124,478 126,480 126,501 126,479 125,478 125,476 126,475 126,451 125,450 125,448 126,447 126,425 126,446 124,448 119,448 118,447 118,424 119,423 125,423 Z" fill="none" stroke="black" stroke-width="1"/>
  <path d="M 107,381 L 107,406 117,406 118,407 118,419 117,420 115,418 115,409 107,409 107,433 108,434 108,436 107,437 107,461 108,462 108,464 107,465 107,489 108,490 108,492 107,493 107,517 115,517 116,516 115,515 115,514 116,513 115,512 115,509 116,508 116,507 117,506 118,507 118,531 124,531 125,532 125,533 124,534 123,534 122,533 121,534 120,534 119,533 118,534 118,559 124,559 125,560 125,561 124,562 120,562 119,561 118,562 118,587 119,588 119,589 118,590 118,616 119,617 118,618 118,629 119,630 119,631 118,632 118,656 119,657 119,659 118,660 118,675 118,661 120,659 124,659 126,661 126,675 128,675 128,674 129,673 135,673 137,675 137,674 136,673 136,661 138,659 139,660 139,675 139,660 140,659 145,659 147,661 147,674 147,660 146,659 146,657 147,656 147,633 148,632 147,632 146,631 146,629 147,628 147,616 148,615 147,614 147,590 148,589 147,590 146,589 146,587 147,586 148,586 147,585 147,576 148,575 147,574 147,562 148,561 147,562 146,561 146,559 147,558 147,534 146,533 145,534 141,534 140,533 139,534 139,558 138,559 136,557 136,545 137,544 136,543 136,535 137,534 137,532 138,531 146,531 147,530 148,531 147,530 147,506 138,506 137,505 137,503 136,502 136,480 138,478 139,479 139,503 147,503 147,479 148,478 148,477 148,478 147,479 146,478 146,476 147,475 147,465 148,464 147,463 147,451 146,450 146,448 147,447 148,448 148,449 148,448 147,447 147,423 139,423 139,447 140,448 138,450 137,449 137,447 136,446 136,434 137,433 136,432 136,424 137,423 137,420 136,419 136,409 130,409 129,408 128,409 128,434 129,435 129,436 128,437 128,461 129,462 129,464 128,465 128,489 129,490 129,491 128,492 128,517 136,517 137,516 136,515 136,507 137,506 138,506 139,507 139,530 138,531 136,529 136,519 135,519 134,520 130,520 129,519 128,520 128,544 129,545 129,547 128,548 128,573 129,574 129,575 128,576 128,600 129,601 129,602 128,603 128,644 129,645 128,646 128,670 129,671 128,672 128,674 127,675 126,674 126,660 125,659 125,657 126,656 126,632 125,631 125,629 126,628 126,618 125,617 125,614 126,613 126,590 125,589 125,587 126,586 126,564 125,563 126,562 125,561 125,559 126,558 126,534 125,533 125,531 126,530 126,506 117,506 116,505 116,502 115,501 115,494 116,493 115,492 109,492 108,491 108,490 109,489 114,489 115,490 116,489 108,489 107,488 107,466 109,464 114,464 115,465 115,467 116,468 116,480 115,481 115,487 115,481 116,480 116,468 115,467 115,466 116,465 115,464 115,462 116,461 115,460 115,459 116,458 116,457 115,456 115,455 116,454 116,446 115,445 115,439 115,445 116,446 116,454 115,455 115,456 116,457 116,458 115,459 115,461 114,462 109,462 107,460 107,438 108,437 109,437 110,436 113,436 114,437 115,437 115,425 116,424 116,421 117,420 125,420 125,419 126,418 126,395 118,395 118,405 117,406 116,406 115,405 115,400 116,399 116,390 115,389 115,383 116,382 115,381 Z" fill="none" stroke="black" stroke-width="1"/>
  <path d="M 210,365 L 211,365 215,369 216,369 217,370 217,371 220,374 220,375 221,376 221,378 222,379 222,391 221,392 221,393 220,394 219,393 219,392 219,393 220,394 220,395 219,396 219,397 218,398 217,397 218,398 218,399 212,405 212,406 210,408 210,409 208,411 208,414 207,415 207,417 206,418 206,421 205,422 205,435 205,422 206,421 206,418 207,417 207,415 208,414 208,412 209,411 209,410 211,408 211,407 217,401 217,400 219,398 219,397 220,396 220,395 221,394 221,392 222,391 222,379 221,378 221,375 219,373 219,372 213,366 212,366 211,365 Z" fill="none" stroke="black" stroke-width="1"/>
  <path d="M 192,348 L 192,349 195,352 195,353 199,357 200,357 202,359 203,359 205,361 204,362 203,362 202,361 201,361 199,359 198,359 195,356 198,359 199,359 202,362 203,362 204,363 205,363 204,362 205,361 208,361 210,363 212,363 213,364 214,364 221,371 221,372 223,374 223,376 224,377 224,380 225,381 225,387 224,388 224,393 223,394 223,395 222,396 222,397 221,398 221,399 219,401 219,402 214,407 214,408 211,411 211,412 210,413 210,416 209,417 209,419 208,420 208,434 208,420 209,419 209,417 210,416 210,414 211,413 211,412 213,410 213,409 216,406 216,405 221,400 221,399 222,398 222,396 224,394 224,388 225,387 225,381 224,380 224,377 223,376 223,373 221,371 221,370 215,364 214,364 213,363 211,363 210,362 209,362 208,361 206,361 204,359 203,359 202,358 201,358 195,352 195,351 Z" fill="none" stroke="black" stroke-width="1"/>
  <path d="M 139,312 L 139,336 138,337 136,335 136,326 130,326 129,325 128,326 128,350 129,351 129,352 128,353 128,378 129,379 129,380 128,381 128,406 136,406 136,397 138,395 139,396 139,420 148,420 147,419 147,396 146,395 138,395 137,394 137,392 136,391 136,383 137,382 136,381 136,369 138,367 139,368 139,392 140,393 141,392 147,392 147,368 148,367 147,368 146,367 146,365 147,364 146,363 147,362 147,354 148,353 147,352 148,351 147,350 147,340 146,339 145,340 141,340 140,339 139,340 139,364 140,365 138,367 137,366 137,364 136,363 136,341 137,340 137,338 138,337 146,337 147,336 148,337 147,336 147,312 Z" fill="none" stroke="black" stroke-width="1"/>
  <path d="M 118,312 L 118,336 117,337 116,336 116,335 115,334 115,328 116,327 115,326 107,326 107,350 108,351 108,353 107,354 107,378 108,379 109,378 114,378 115,379 116,378 116,377 115,376 116,375 116,363 115,362 115,355 116,354 115,353 115,351 116,350 115,349 115,343 116,342 116,338 117,337 124,337 125,338 125,339 124,340 120,340 119,339 118,340 118,364 119,365 119,367 118,368 118,392 124,392 125,393 126,392 119,392 118,391 118,368 119,367 124,367 126,369 126,390 126,368 125,367 125,365 126,364 126,342 125,341 126,340 125,339 125,337 126,336 126,314 126,335 124,337 119,337 118,336 118,313 119,312 126,312 Z" fill="none" stroke="black" stroke-width="1"/>
  <path d="M 107,298 L 107,323 115,323 116,322 115,321 116,320 116,305 115,304 115,300 116,299 115,298 Z" fill="none" stroke="black" stroke-width="1"/>
  <path d="M 171,215 L 189,215 190,216 190,224 190,215 Z" fill="none" stroke="black" stroke-width="1"/>
  <path d="M 107,215 L 107,239 108,240 115,240 116,239 115,238 115,231 117,229 118,230 118,253 117,254 116,253 116,251 115,250 115,247 116,246 115,245 116,244 115,243 115,242 114,242 113,243 109,243 108,242 107,243 107,267 108,268 108,270 107,271 107,295 108,296 109,295 115,295 116,294 115,293 115,287 116,286 116,280 115,279 115,272 116,271 115,270 115,268 116,267 115,266 115,259 116,258 116,255 117,254 124,254 125,255 125,256 124,257 120,257 119,256 118,257 118,281 119,282 119,283 118,284 118,309 125,309 119,309 118,308 118,285 119,284 124,284 126,286 126,307 126,285 125,284 125,282 126,281 126,259 125,258 126,257 125,256 125,254 126,253 126,230 125,229 117,229 116,228 116,225 115,224 115,217 116,216 115,215 Z" fill="none" stroke="black" stroke-width="1"/>
  <path d="M 367,188 L Z" fill="none" stroke="black" stroke-width="1"/>
  <path d="M 274,163 L 273,164 264,164 263,165 259,165 258,166 256,166 255,167 254,167 253,168 252,168 245,175 245,177 244,178 244,180 243,181 243,185 242,186 242,187 243,188 243,193 244,194 244,195 245,196 245,198 246,199 246,200 249,203 249,204 252,207 253,207 256,210 257,210 258,211 259,211 260,212 262,212 263,213 266,213 267,214 283,214 284,215 305,215 306,216 324,216 325,215 326,215 327,214 328,214 330,212 331,212 333,210 334,210 336,208 337,208 338,207 339,207 341,205 342,205 344,203 345,203 347,201 348,201 349,200 350,200 352,198 353,198 355,196 356,196 357,195 358,195 360,193 361,193 364,190 364,189 365,188 365,178 364,177 364,176 363,175 363,174 362,173 361,173 360,172 358,172 357,171 355,171 354,170 350,170 349,169 345,169 344,168 340,168 339,167 332,167 331,166 326,166 325,165 317,165 316,164 305,164 304,163 Z" fill="none" stroke="black" stroke-width="1"/>
  <path d="M 107,160 L 107,184 108,185 108,187 107,188 107,210 107,189 109,187 114,187 115,188 115,196 116,197 116,203 115,204 115,205 116,206 116,207 115,208 115,211 114,212 107,212 115,212 116,211 115,210 115,208 116,207 116,206 115,205 115,204 116,203 116,197 115,196 115,189 116,188 115,187 115,185 116,184 115,183 115,176 116,175 116,169 115,168 115,162 116,161 115,160 Z" fill="none" stroke="black" stroke-width="1"/>
  <path d="M 332,159 L 332,160 350,160 334,160 333,159 Z" fill="none" stroke="black" stroke-width="1"/>
  <path d="M 306,148 L 306,156 305,157 288,157 305,157 306,158 Z" fill="none" stroke="black" stroke-width="1"/>
  <path d="M 352,144 L 352,145 351,146 332,146 332,156 331,157 351,157 352,158 352,165 Z" fill="none" stroke="black" stroke-width="1"/>
  <path d="M 401,138 L 401,139 403,141 487,141 403,141 401,139 Z" fill="none" stroke="black" stroke-width="1"/>
  <path d="M 399,138 L 399,139 Z" fill="none" stroke="black" stroke-width="1"/>
  <path d="M 403,130 L 402,131 402,134 403,135 403,138 404,139 486,139 488,137 488,135 489,134 489,130 Z" fill="none" stroke="black" stroke-width="1"/>
  <path d="M 400,128 L 400,136 400,129 401,128 447,128 Z" fill="none" stroke="black" stroke-width="1"/>
  <path d="M 237,124 L 237,128 236,129 225,129 235,129 237,131 236,132 225,132 236,132 237,133 237,142 236,143 225,143 283,143 283,133 284,132 286,134 286,141 285,142 285,143 305,143 306,144 307,143 331,143 332,144 332,143 330,143 329,142 328,143 310,143 309,142 309,141 309,142 308,143 286,143 285,142 286,141 286,134 285,133 286,132 297,132 287,132 286,131 288,129 297,129 286,129 285,128 286,127 286,125 286,127 284,129 283,128 283,125 283,129 282,130 281,129 261,129 260,128 260,124 260,129 259,130 258,129 238,129 237,128 Z" fill="none" stroke="black" stroke-width="1"/>
  <path d="M 313,122 L 316,122 Z" fill="none" stroke="black" stroke-width="1"/>
  <path d="M 250,116 L 249,117 231,117 230,118 219,118 218,119 218,159 217,160 206,160 205,161 204,161 203,160 199,160 198,161 197,161 196,160 179,160 178,161 177,160 173,160 172,161 170,161 169,160 166,160 165,161 161,161 162,162 162,437 161,438 161,442 162,442 161,441 161,438 162,437 165,437 165,165 167,163 219,163 220,162 220,121 221,120 222,120 221,120 220,121 220,161 218,163 166,163 165,164 165,436 164,437 163,437 162,436 162,162 163,161 165,161 166,160 169,160 170,161 172,161 173,160 177,160 178,161 179,160 196,160 197,161 198,161 199,160 203,160 204,161 205,161 206,160 218,160 218,120 220,118 230,118 231,117 249,117 250,118 251,117 252,117 253,118 253,119 253,118 254,117 256,117 257,118 276,118 277,119 279,119 280,118 281,118 282,119 291,119 292,118 293,119 314,119 315,120 334,120 335,121 411,121 412,122 414,122 415,121 418,121 419,122 447,122 448,123 468,123 469,124 499,124 500,125 506,125 507,126 508,125 507,125 506,124 505,125 500,125 499,124 498,124 497,123 496,124 469,124 468,123 448,123 446,121 445,122 419,122 418,121 417,121 416,120 414,122 412,122 411,121 386,121 385,120 384,121 342,121 341,120 340,121 335,121 334,120 315,120 314,119 293,119 292,118 291,119 282,119 281,118 280,118 279,119 277,119 276,118 257,118 256,117 254,117 253,116 252,117 251,117 Z" fill="none" stroke="black" stroke-width="1"/>
  <path d="M 107,77 L 107,101 108,102 108,104 107,105 107,129 108,130 109,129 115,129 116,128 115,127 115,120 116,119 116,114 115,113 115,112 116,111 115,110 115,106 116,105 115,104 115,92 116,91 116,86 115,85 115,79 116,78 115,77 Z" fill="none" stroke="black" stroke-width="1"/>
  <path d="M 540,76 L 539,77 558,77 541,77 Z" fill="none" stroke="black" stroke-width="1"/>
  <path d="M 540,65 L 540,72 539,73 540,74 558,74 541,74 540,73 Z" fill="none" stroke="black" stroke-width="1"/>
  <path d="M 439,56 L 439,119 446,119 446,57 445,57 444,56 441,56 444,56 446,58 446,118 445,119 440,119 439,118 Z" fill="none" stroke="black" stroke-width="1"/>
  <path d="M 537,54 L 537,59 536,60 513,60 514,61 515,60 557,60 538,60 537,59 Z" fill="none" stroke="black" stroke-width="1"/>
  <path d="M 424,53 L 452,53 453,54 468,54 469,55 505,55 506,56 507,55 507,54 506,53 505,53 506,53 507,54 506,55 469,55 468,54 453,54 452,53 Z" fill="none" stroke="black" stroke-width="1"/>
  <path d="M 416,53 L 418,53 419,54 420,53 Z" fill="none" stroke="black" stroke-width="1"/>
  <path d="M 296,50 L 314,50 315,51 324,51 315,51 314,50 Z" fill="none" stroke="black" stroke-width="1"/>
  <path d="M 292,50 L Z" fill="none" stroke="black" stroke-width="1"/>
  <path d="M 152,19 L 151,20 150,20 150,40 151,41 151,611 152,610 153,611 156,611 157,612 158,611 162,611 163,612 164,611 169,611 164,611 163,612 162,611 153,611 151,609 151,43 153,41 154,42 167,42 168,41 214,41 216,43 215,44 168,44 167,45 167,54 165,56 159,56 159,437 158,438 158,443 159,444 159,471 158,472 158,478 159,479 159,608 158,609 159,608 160,608 159,607 159,479 158,478 158,472 159,471 159,444 158,443 158,438 159,437 159,57 160,56 161,56 162,57 162,157 165,157 165,56 166,55 167,56 167,57 168,58 168,157 185,157 186,158 187,158 188,157 215,157 215,116 216,115 217,115 218,114 219,115 220,114 241,114 242,113 243,114 250,114 250,52 251,51 252,51 253,52 253,114 255,114 256,115 258,115 259,114 260,114 260,54 260,113 258,115 256,115 255,114 254,114 253,113 253,52 254,51 259,51 260,52 261,51 262,51 263,52 263,115 270,115 270,54 270,114 269,115 264,115 263,114 263,52 264,51 269,51 270,52 272,52 273,53 273,115 280,115 280,53 281,52 282,52 283,53 283,115 290,115 291,114 290,113 290,55 292,53 293,54 293,115 294,115 295,116 300,116 301,115 302,116 303,115 304,116 315,116 316,117 320,117 321,116 322,117 332,117 333,116 334,117 334,118 342,118 343,117 344,118 385,118 386,117 387,118 388,117 389,118 395,118 396,117 397,118 407,118 408,117 409,118 417,118 416,117 416,57 417,56 419,58 419,84 418,85 418,87 419,88 418,89 418,92 419,93 419,118 420,118 421,119 424,119 425,118 428,118 429,119 437,119 436,118 436,56 429,56 428,57 429,58 429,117 428,118 427,118 426,117 426,56 419,56 418,57 417,56 415,56 414,55 410,55 409,56 408,56 407,55 392,55 391,54 390,55 389,54 388,55 386,55 385,54 384,55 341,55 340,54 334,54 333,55 334,56 334,115 332,117 331,116 331,54 330,54 329,53 326,53 325,54 323,54 323,83 322,84 321,83 321,54 320,54 319,53 316,53 315,54 314,53 313,54 311,54 310,53 304,53 303,54 301,54 300,53 292,53 291,54 289,52 270,52 269,51 218,51 215,48 215,44 217,42 571,42 573,44 573,55 572,56 571,55 570,56 563,56 563,57 564,56 565,57 565,629 564,630 563,629 563,630 570,630 569,630 568,629 568,577 569,576 568,575 568,57 569,56 570,56 571,55 573,57 573,262 572,263 571,262 571,58 571,628 571,577 572,576 573,577 573,629 572,630 572,646 573,647 573,648 571,650 468,650 467,651 456,651 455,652 442,652 441,653 427,653 426,654 416,654 415,655 400,655 399,656 385,656 384,657 374,657 373,658 358,658 357,659 346,659 345,660 334,660 333,661 332,660 331,660 330,659 330,653 332,651 333,651 334,652 336,652 337,651 347,651 348,650 363,650 364,649 377,649 378,648 389,648 390,647 410,647 411,646 427,646 428,645 439,645 428,645 427,646 411,646 410,647 390,647 389,648 378,648 377,649 364,649 363,650 348,650 347,651 337,651 336,652 334,652 332,650 332,646 334,644 412,644 334,644 333,643 333,644 332,645 332,651 331,652 329,650 329,645 330,644 330,643 332,641 432,641 433,642 472,642 473,641 560,641 560,638 561,637 561,630 560,629 560,557 558,557 557,556 555,556 554,555 553,555 552,554 549,554 548,553 546,553 545,552 543,552 542,551 540,551 539,550 538,550 537,549 534,549 533,548 531,548 530,547 529,547 528,546 525,546 524,545 522,545 521,544 520,544 519,543 516,543 515,542 513,542 512,541 510,541 509,540 507,540 506,539 504,539 503,538 501,538 500,537 498,537 497,536 496,536 495,535 492,535 491,534 480,534 479,535 476,535 475,536 474,536 473,537 472,537 471,538 470,538 464,544 464,545 462,547 462,548 461,549 461,550 460,551 460,553 459,554 459,564 460,565 460,569 461,570 461,573 462,574 462,578 463,579 463,582 464,583 464,586 465,587 465,590 466,591 466,594 467,595 467,598 468,599 468,602 469,603 469,606 470,607 468,609 467,608 467,606 466,605 466,602 465,601 465,598 464,597 464,594 463,593 463,590 462,589 462,586 461,585 461,582 460,581 460,578 459,577 459,572 458,571 458,569 457,568 457,564 456,563 456,557 457,556 457,551 458,550 458,549 457,549 456,548 456,537 455,536 455,532 454,531 454,528 453,527 453,524 452,523 452,520 451,519 451,518 450,517 450,515 449,514 449,513 448,512 448,511 447,510 447,509 446,508 446,507 445,506 445,505 443,503 443,502 441,500 441,499 438,496 438,495 429,486 429,485 428,484 427,484 425,482 424,482 419,477 418,477 416,475 415,475 413,473 412,473 410,471 409,471 408,470 407,470 405,468 404,468 403,467 402,467 401,466 400,466 399,465 398,465 397,464 396,464 395,463 394,463 393,462 392,462 391,461 390,461 389,460 388,460 387,459 386,459 385,458 384,458 382,456 381,456 374,449 374,448 373,447 373,445 372,444 372,441 371,440 371,439 372,438 372,435 373,434 373,432 374,431 374,430 380,424 381,424 383,422 385,422 386,421 387,421 388,420 389,420 390,419 392,419 393,418 394,418 396,416 399,416 400,415 402,415 403,414 404,414 405,413 406,413 407,412 409,412 410,411 412,411 413,410 414,410 415,409 416,409 417,408 419,408 420,407 422,407 423,406 424,406 425,405 427,405 428,404 429,404 431,402 433,402 434,401 435,401 436,400 437,400 438,399 441,399 443,397 444,397 445,396 446,396 448,394 449,394 450,393 451,393 452,392 453,392 467,378 467,376 468,375 468,374 469,373 469,372 470,371 470,368 471,367 471,365 472,364 472,355 471,354 471,351 470,350 470,347 469,346 469,345 468,344 468,343 467,342 467,340 465,338 465,337 463,335 463,334 461,332 461,331 458,328 458,327 456,325 456,324 455,323 455,322 456,321 459,321 460,320 462,320 463,319 467,319 468,318 470,318 471,317 473,317 474,316 476,316 477,315 478,315 479,314 480,314 482,312 483,312 486,309 486,308 487,307 487,306 489,304 489,302 490,301 490,300 491,299 491,298 492,297 492,295 493,294 493,292 494,291 494,290 495,289 495,286 496,285 496,283 497,282 497,279 498,278 498,275 499,274 499,270 500,269 500,260 501,259 501,249 500,248 500,239 499,238 499,234 498,233 498,228 497,227 497,225 496,224 496,221 495,220 495,216 494,215 494,213 493,212 493,209 492,208 492,205 491,204 491,202 490,201 490,200 489,199 489,197 487,195 487,194 484,191 483,191 481,189 480,189 479,188 478,188 477,187 474,187 473,186 468,186 467,185 460,185 459,184 451,184 449,182 450,181 457,181 458,182 465,182 466,183 472,183 473,184 477,184 478,185 480,185 484,189 485,189 489,193 489,194 491,196 491,197 493,199 493,202 494,203 494,205 495,206 495,209 496,210 496,212 497,213 497,217 498,218 498,221 499,222 499,224 500,225 500,228 501,229 501,234 502,235 502,239 503,240 503,268 502,269 502,272 501,273 501,277 500,278 500,282 499,283 499,284 498,285 498,288 497,289 497,291 495,293 495,296 494,297 494,299 493,300 493,302 491,304 491,305 489,307 489,308 488,309 488,310 484,314 483,314 481,316 480,316 478,318 477,318 476,319 474,319 473,320 470,320 469,321 466,321 465,322 461,322 460,323 459,323 459,325 461,327 461,328 463,330 463,331 466,334 466,335 467,336 467,337 470,340 470,342 471,343 471,344 472,345 472,347 473,348 473,351 474,352 474,356 475,357 475,362 474,363 474,367 473,368 473,370 472,371 472,373 471,374 471,375 470,376 470,377 469,378 469,379 454,394 453,394 451,396 450,396 449,397 448,397 446,399 446,400 447,401 447,402 449,404 449,405 450,405 455,410 455,411 463,419 463,420 465,422 465,424 466,425 466,437 465,438 465,445 464,446 464,447 463,448 462,447 462,441 463,440 463,434 464,433 464,427 463,426 463,424 462,423 462,422 460,420 460,419 453,412 453,411 449,407 448,407 447,406 447,405 444,402 443,402 442,401 441,401 440,402 438,402 437,403 436,403 435,404 434,404 433,405 431,405 430,406 429,406 428,407 427,407 426,408 424,408 423,409 422,409 421,410 420,410 419,411 417,411 416,412 415,412 414,413 412,413 411,414 410,414 409,415 407,415 406,416 404,416 403,417 402,417 401,418 399,418 398,419 396,419 394,421 392,421 391,422 389,422 387,424 385,424 384,425 383,425 382,426 381,426 376,431 376,433 375,434 375,436 374,437 374,442 375,443 375,445 376,446 376,448 382,454 383,454 385,456 386,456 387,457 388,457 389,458 391,458 393,460 395,460 397,462 398,462 399,463 400,463 401,464 402,464 403,465 404,465 405,466 406,466 408,468 409,468 410,469 411,469 413,471 414,471 416,473 417,473 419,475 420,475 424,479 425,479 427,481 430,481 431,480 433,480 434,479 435,479 436,478 438,478 439,477 441,477 442,476 443,476 444,475 446,475 447,474 449,474 451,472 453,472 454,471 455,471 456,470 457,470 459,468 459,464 460,463 460,456 461,455 461,450 463,448 464,449 464,454 463,455 463,462 462,463 462,468 461,469 461,470 460,471 459,471 457,473 456,473 455,474 453,474 452,475 451,475 450,476 449,476 448,477 447,477 446,478 444,478 443,479 441,479 440,480 438,480 437,481 436,481 435,482 433,482 432,483 431,483 431,485 436,490 437,490 438,491 438,492 441,495 441,496 443,498 443,499 446,502 446,503 448,505 448,506 449,507 449,508 450,509 450,510 451,511 451,513 453,515 453,517 454,518 454,520 455,521 455,523 456,524 456,528 457,529 457,531 458,532 458,538 459,539 459,545 460,546 462,544 462,543 469,536 470,536 471,535 472,535 473,534 474,534 476,532 479,532 480,531 491,531 492,532 494,532 495,533 496,533 497,534 498,534 499,535 502,535 503,536 505,536 506,537 508,537 509,538 512,538 513,539 514,539 515,540 518,540 519,541 521,541 522,542 523,542 524,543 527,543 528,544 529,544 530,545 534,545 535,546 536,546 537,545 537,534 538,533 539,534 552,534 553,533 554,533 555,534 556,534 557,533 556,534 555,534 554,533 553,533 552,534 541,534 540,533 540,532 541,531 558,531 540,531 539,530 540,529 540,522 540,529 538,531 537,530 537,521 538,520 557,520 541,520 540,519 539,520 537,520 536,519 535,520 518,520 517,519 516,520 514,520 513,519 512,520 495,520 494,519 493,520 491,520 490,519 489,520 472,520 471,519 470,520 457,520 469,520 470,521 470,530 469,531 467,529 467,522 467,529 468,530 467,531 460,531 466,531 467,532 467,533 466,534 465,533 463,533 462,534 460,534 462,534 463,533 465,533 466,534 468,534 471,531 473,531 471,531 470,530 470,521 471,520 490,520 491,521 491,529 491,521 492,520 494,522 494,529 494,522 493,521 494,520 513,520 514,521 514,530 513,531 498,531 513,531 514,532 512,534 507,534 506,533 502,533 506,533 507,534 512,534 513,533 514,534 514,537 514,535 515,534 535,534 536,533 537,534 537,545 536,546 535,546 534,545 530,545 529,544 528,544 527,543 524,543 523,542 522,542 521,541 519,541 518,540 517,540 516,539 515,540 514,539 513,539 512,538 509,538 508,537 506,537 505,536 503,536 502,535 500,535 499,534 498,534 497,533 496,533 495,532 494,532 493,531 492,532 491,531 480,531 479,532 476,532 475,533 474,533 473,534 472,534 470,536 468,536 462,542 462,543 461,544 461,545 460,546 459,545 459,539 458,538 458,531 457,530 457,529 456,528 456,524 455,523 455,521 454,520 454,518 455,517 558,517 540,517 539,516 540,515 540,508 540,515 538,517 537,516 537,508 537,516 536,517 515,517 514,516 514,507 515,506 533,506 450,506 449,507 448,506 448,504 449,503 531,503 532,502 533,503 534,503 536,505 539,505 540,506 559,506 560,507 560,544 559,545 540,545 539,544 540,543 540,536 540,543 539,544 539,545 559,545 560,546 559,547 544,547 559,547 560,548 560,553 559,554 557,554 556,553 554,553 553,552 551,552 550,551 548,551 547,550 545,550 544,549 542,549 541,548 540,548 539,547 538,547 539,548 540,548 541,549 544,549 545,550 547,550 548,551 550,551 551,552 553,552 554,553 556,553 557,554 560,554 560,506 559,505 558,506 540,506 539,505 537,505 536,504 535,504 532,501 531,501 526,496 526,495 525,494 525,493 523,491 523,490 522,489 522,487 521,486 521,485 520,484 520,482 519,481 519,480 518,479 518,478 517,477 517,476 516,475 516,474 515,473 515,472 514,471 514,469 513,468 513,467 512,466 512,465 511,464 511,462 510,461 510,460 509,459 509,452 508,451 508,450 509,449 509,446 510,445 510,444 511,443 511,441 512,440 512,439 513,438 513,437 514,436 514,435 515,434 515,433 517,431 517,430 518,429 518,428 519,427 519,426 520,425 520,424 521,423 521,422 522,421 522,420 523,419 523,417 525,415 525,413 526,412 526,411 527,410 527,408 528,407 528,406 529,405 529,404 530,403 530,402 531,401 531,398 532,397 532,396 533,395 533,393 534,392 534,390 535,389 535,388 536,387 536,384 537,383 537,381 538,380 538,378 539,377 539,374 540,373 540,372 541,371 541,368 542,367 542,366 544,364 559,364 560,365 558,367 544,367 544,370 543,371 543,373 542,374 542,376 541,377 541,379 540,380 540,382 539,383 539,386 538,387 538,389 537,390 537,392 536,393 536,394 535,395 535,397 534,398 534,400 533,401 533,402 532,403 532,404 531,405 531,407 530,408 530,409 529,410 529,411 528,412 528,414 527,415 527,416 526,417 526,418 525,419 525,420 524,421 524,422 523,423 523,424 522,425 522,427 520,429 520,431 518,433 518,434 516,436 516,438 515,439 515,440 514,441 514,442 513,443 513,444 512,445 512,448 511,449 511,456 512,457 512,459 513,460 513,462 514,463 514,464 515,465 515,466 516,467 516,468 517,469 517,471 518,472 518,473 519,474 519,475 520,476 520,478 522,480 522,482 523,483 523,484 524,485 524,486 525,487 525,489 526,490 526,491 527,492 527,493 528,494 528,495 532,499 533,499 535,501 536,501 537,502 539,502 540,503 560,503 560,367 559,366 560,365 560,321 559,320 560,319 560,261 559,260 560,259 561,259 562,260 562,286 563,287 563,293 562,294 562,295 563,296 563,308 562,309 562,313 563,314 563,315 562,316 562,627 562,316 563,315 563,314 562,313 562,309 563,308 563,296 562,295 562,294 563,293 563,287 562,286 562,198 563,197 563,187 562,186 562,182 563,181 562,180 563,179 563,168 562,167 562,60 563,59 562,60 562,167 563,168 563,179 562,180 563,181 562,182 562,186 563,187 563,197 562,198 562,258 561,259 560,258 560,207 559,206 560,205 560,57 561,56 561,53 560,52 560,51 509,51 508,50 481,50 480,51 474,51 473,52 471,52 470,51 450,51 449,50 337,50 336,51 332,51 336,51 337,50 342,50 344,52 343,51 344,50 449,50 450,51 470,51 471,52 473,52 474,51 480,51 481,50 508,50 509,51 559,51 561,53 561,56 560,57 560,101 559,102 541,102 540,101 540,91 541,90 557,90 541,90 540,89 541,88 557,88 541,88 540,87 540,79 540,86 539,87 540,88 540,90 539,91 537,89 537,64 538,63 558,63 512,63 513,63 514,64 514,73 513,74 512,74 514,74 514,64 515,63 536,63 537,64 537,73 536,74 518,74 517,73 517,65 517,74 536,74 537,75 535,77 518,77 517,76 516,77 535,77 536,76 537,77 537,87 536,88 518,88 517,87 517,79 517,90 516,91 517,92 517,100 515,102 514,101 514,76 514,87 513,88 512,88 513,88 514,89 512,91 513,90 514,91 514,101 513,102 512,102 513,102 514,103 513,104 512,104 513,104 514,105 514,115 513,116 512,115 514,117 513,118 512,118 513,118 514,119 514,121 514,119 515,118 514,117 514,116 515,115 516,115 517,116 517,127 517,119 518,118 536,118 537,119 537,128 536,129 515,129 514,128 514,129 513,130 510,130 514,130 515,129 535,129 536,130 537,129 539,129 540,130 541,130 542,129 557,129 538,129 537,128 537,119 538,118 559,118 560,119 560,131 559,132 517,132 517,141 517,133 518,132 536,132 537,133 537,142 536,143 515,143 514,142 514,133 515,132 498,132 497,131 497,129 498,128 509,128 510,127 511,127 512,126 512,124 511,123 511,122 509,120 509,119 510,118 510,115 509,114 509,105 510,104 509,103 510,102 509,101 509,89 510,88 509,87 509,78 510,77 510,74 509,73 509,64 510,63 509,62 509,60 511,58 512,58 512,55 511,54 510,54 509,53 509,54 510,54 512,56 512,57 511,58 510,58 509,59 508,59 507,60 506,59 500,59 499,60 498,59 487,59 486,58 478,58 477,59 476,58 468,58 467,59 466,58 465,58 464,57 458,57 457,58 456,57 449,57 449,120 457,120 456,119 456,59 458,57 459,58 459,120 466,120 466,60 468,58 469,59 469,120 470,120 471,121 476,121 476,60 478,58 479,59 479,121 486,121 487,120 488,121 489,120 490,121 496,121 497,120 498,121 497,120 497,60 498,59 499,60 499,86 500,87 500,89 501,90 501,91 499,93 499,119 500,120 500,121 502,121 503,122 504,122 505,121 506,122 507,121 508,122 509,121 512,124 512,125 510,127 509,127 508,128 497,128 497,131 496,132 496,134 495,135 495,138 494,139 494,140 493,141 493,147 494,148 494,149 493,150 493,152 494,153 493,154 494,155 492,157 491,156 491,146 402,146 401,145 401,144 402,143 405,143 406,144 407,143 420,143 421,144 426,144 427,143 443,143 444,144 451,144 452,143 466,143 467,144 473,144 474,143 475,144 479,144 480,143 489,143 491,141 491,140 488,143 480,143 479,144 475,144 474,143 473,144 467,144 466,143 452,143 451,144 444,144 443,143 427,143 426,144 421,144 420,143 407,143 406,144 405,143 401,143 400,142 400,141 400,142 399,143 397,141 397,139 396,138 396,134 395,133 395,127 396,126 397,126 398,127 398,128 398,126 399,125 420,125 421,126 451,126 452,127 466,127 467,126 479,126 480,127 491,127 492,128 491,129 491,136 490,137 490,138 489,139 490,138 490,137 491,136 492,137 492,138 492,137 493,136 493,133 494,132 494,128 492,128 491,127 480,127 479,126 467,126 466,127 452,127 451,126 421,126 420,125 399,125 398,124 399,123 396,123 397,123 398,124 398,125 397,126 396,126 395,125 328,125 327,124 316,124 313,127 304,127 303,126 304,125 312,125 313,124 312,125 303,125 302,124 303,123 311,123 303,123 301,121 299,123 276,123 275,122 254,122 253,121 250,121 249,122 223,122 222,123 222,128 223,129 223,133 222,134 222,141 223,142 223,146 222,147 222,155 223,156 223,160 222,161 222,163 220,165 169,165 168,166 168,264 169,265 168,266 169,267 168,268 168,435 169,436 169,437 173,437 174,438 201,438 202,437 237,437 238,438 239,438 238,437 233,437 232,436 232,435 231,434 231,433 230,432 230,431 229,430 229,429 228,428 228,424 227,423 227,417 228,416 228,413 229,412 229,410 230,409 230,408 231,407 231,406 232,405 232,404 235,401 235,400 240,395 240,394 241,393 241,392 242,391 242,390 243,389 243,380 242,379 242,377 241,376 241,375 240,374 240,373 239,372 239,371 238,370 238,369 237,368 237,367 236,366 236,365 235,364 235,363 234,362 234,361 233,360 233,359 227,353 225,353 224,352 222,352 221,351 210,351 209,350 206,350 205,349 203,349 202,348 201,348 199,346 198,346 192,340 192,339 191,338 191,337 189,335 189,333 188,332 188,327 187,326 187,322 188,321 188,317 189,316 189,314 190,313 190,311 192,309 192,307 193,306 193,304 194,303 194,301 195,300 195,289 194,288 194,285 193,284 193,283 192,282 192,280 191,279 191,278 190,277 190,276 186,272 185,272 184,271 182,271 181,270 172,270 172,272 171,273 171,306 172,307 172,308 171,309 171,311 172,312 172,316 171,317 172,318 172,322 171,323 172,324 172,330 171,331 171,333 172,334 172,338 171,339 171,343 172,344 172,353 171,354 171,432 172,433 172,435 174,433 201,433 201,422 202,421 202,416 203,415 203,413 204,412 204,410 205,409 205,408 208,405 208,404 214,398 214,397 216,395 216,393 217,392 217,390 218,389 218,380 217,379 217,378 216,377 216,375 214,373 214,372 213,371 212,371 210,369 209,369 208,368 207,368 206,367 205,367 204,366 205,365 206,365 207,364 208,364 207,364 206,365 205,365 204,366 201,366 199,364 198,364 192,358 192,357 187,352 177,352 186,352 192,358 192,359 197,364 198,364 199,365 200,365 201,366 203,366 204,367 205,367 206,368 208,368 211,371 212,371 214,373 214,374 216,376 216,377 217,378 217,379 218,380 218,389 217,390 217,392 216,393 216,394 214,396 214,397 208,403 208,404 206,406 206,407 205,408 205,409 204,410 204,412 203,413 203,415 202,416 202,421 201,422 201,432 200,433 175,433 174,432 174,353 175,352 174,351 174,274 175,273 182,273 184,275 185,275 188,278 188,279 189,280 189,282 190,283 190,284 191,285 191,287 192,288 192,291 193,292 193,297 192,298 192,300 191,301 191,304 189,306 189,307 188,308 188,310 187,311 187,312 186,313 186,316 185,317 185,331 186,332 186,334 187,335 187,337 188,338 188,339 189,340 189,341 197,349 198,349 199,350 200,350 201,351 202,351 203,352 206,352 207,353 212,353 213,354 222,354 223,355 224,355 225,356 226,356 230,360 230,361 231,362 231,363 232,364 232,365 234,367 234,369 235,370 235,371 236,372 236,373 238,375 238,377 239,378 239,379 240,380 240,382 241,383 241,385 240,386 240,389 239,390 239,391 236,394 236,395 230,401 230,402 229,403 229,404 228,405 228,406 227,407 227,409 226,410 226,413 225,414 225,426 226,427 226,431 227,432 227,433 229,435 228,434 228,433 227,432 227,431 226,430 226,427 225,426 225,414 226,413 226,410 227,409 227,407 229,405 229,404 230,403 230,402 234,398 234,397 238,393 238,392 240,390 240,386 241,385 241,383 240,382 240,379 239,378 239,377 238,376 238,375 237,374 237,373 236,372 236,371 235,370 235,369 234,368 234,367 233,366 233,365 232,364 232,363 231,362 231,361 229,359 229,358 227,356 226,356 225,355 223,355 222,354 213,354 212,353 207,353 206,352 203,352 201,350 200,350 199,349 198,349 196,347 195,347 192,344 192,343 189,340 189,339 188,338 188,337 187,336 187,335 186,334 186,332 185,331 185,317 186,316 186,314 187,313 187,312 188,311 188,309 189,308 189,307 190,306 190,305 191,304 191,301 192,300 192,298 193,297 193,292 192,291 192,288 191,287 191,284 190,283 190,282 189,281 189,280 188,279 188,278 187,277 187,276 186,275 185,275 184,274 183,274 182,273 173,273 172,272 172,271 173,270 181,270 182,271 183,271 184,272 185,272 186,273 187,273 189,275 189,276 190,277 190,278 191,279 191,280 192,281 192,282 193,283 193,285 194,286 194,288 195,289 195,300 194,301 194,303 193,304 193,306 192,307 192,308 191,309 191,310 190,311 190,313 189,314 189,315 188,316 188,321 187,322 187,326 188,327 188,333 189,334 189,335 190,336 190,337 191,338 191,339 194,342 194,343 196,345 197,345 199,347 200,347 201,348 202,348 203,349 204,349 205,350 209,350 210,351 221,351 222,352 224,352 225,353 226,353 227,354 228,354 231,357 231,358 233,360 233,361 235,363 235,365 237,367 237,369 238,370 238,371 240,373 240,375 242,377 242,379 243,380 243,389 242,390 242,391 240,393 240,394 236,398 236,399 232,403 232,404 231,405 231,406 230,407 230,409 229,410 229,412 228,413 228,416 227,417 227,423 228,424 228,428 229,429 229,430 230,431 230,433 231,434 231,435 232,436 231,437 202,437 201,438 174,438 173,437 170,437 168,435 168,269 170,267 179,267 180,268 184,268 186,270 187,270 188,271 189,271 190,272 190,273 192,275 192,276 193,277 193,278 194,279 194,280 195,281 195,283 196,284 196,285 197,286 197,289 198,290 198,299 197,300 197,303 196,304 196,305 195,306 195,308 194,309 194,310 193,311 193,312 192,313 192,315 191,316 191,319 190,320 190,329 191,330 191,332 192,333 192,335 193,336 193,337 195,339 195,340 199,344 200,344 202,346 204,346 205,347 208,347 209,348 220,348 221,349 224,349 225,350 226,350 227,351 228,351 236,359 236,360 237,361 237,363 239,365 239,367 240,368 240,369 242,371 242,373 244,375 244,377 245,378 245,379 246,380 246,388 245,389 245,391 244,392 244,393 242,395 242,396 237,401 237,402 235,404 235,405 233,407 233,409 232,410 232,411 231,412 231,415 230,416 230,425 231,426 231,429 232,430 232,431 233,432 233,433 234,434 235,434 236,435 233,432 233,431 232,430 232,429 231,428 231,426 230,425 230,416 231,415 231,413 232,412 232,410 233,409 233,408 235,406 235,405 237,403 237,402 240,399 240,398 243,395 243,394 245,392 245,390 246,389 246,380 245,379 245,378 244,377 244,375 243,374 243,373 242,372 242,371 241,370 241,369 240,368 240,367 239,366 239,365 238,364 238,363 237,362 237,360 235,358 235,357 230,352 229,352 227,350 225,350 224,349 221,349 220,348 209,348 208,347 205,347 204,346 203,346 201,344 200,344 194,338 194,337 193,336 193,335 192,334 192,333 191,332 191,330 190,329 190,320 191,319 191,316 192,315 192,314 193,313 193,311 194,310 194,309 195,308 195,307 196,306 196,304 197,303 197,300 198,299 198,290 197,289 197,286 196,285 196,283 195,282 195,281 194,280 194,278 193,277 193,276 192,275 192,274 190,272 190,271 189,271 188,270 187,270 186,269 185,269 184,268 180,268 179,267 169,267 168,266 169,265 169,264 168,263 168,230 169,229 168,228 168,202 169,201 168,200 168,186 169,185 168,184 168,167 170,165 215,165 216,166 217,165 221,165 222,164 222,161 223,160 223,156 222,155 222,147 223,146 223,142 222,141 222,134 223,133 223,129 222,128 222,124 224,122 249,122 250,121 253,121 254,122 275,122 276,123 298,123 300,125 300,131 299,132 300,133 300,137 301,138 304,138 305,139 317,139 318,140 332,140 333,141 345,141 346,142 361,142 362,143 371,143 372,144 375,144 376,145 376,155 376,145 377,144 378,145 378,155 378,146 379,145 394,145 395,146 397,146 398,145 400,145 401,146 421,146 422,147 422,155 422,147 423,146 424,147 424,155 424,147 425,146 444,146 445,147 445,155 445,147 446,146 469,146 470,147 470,156 469,157 467,155 467,148 467,155 468,156 467,157 451,157 490,157 491,158 489,160 472,160 471,159 470,160 468,160 467,159 466,160 452,160 467,160 468,161 467,162 467,169 468,170 467,171 452,171 466,171 467,172 466,173 452,173 466,173 467,174 467,177 468,178 468,180 468,178 467,177 467,175 469,173 470,174 470,181 470,174 471,173 490,173 491,174 491,184 490,185 484,185 490,185 491,186 490,187 485,187 484,188 482,186 481,186 480,185 478,185 477,184 473,184 472,183 466,183 465,182 458,182 457,181 450,181 449,180 449,179 450,178 450,162 449,161 449,158 448,157 424,157 423,158 422,157 410,157 409,158 408,157 407,158 406,157 378,157 377,158 376,158 376,170 375,171 376,172 375,173 375,175 374,176 374,178 373,179 373,180 372,181 372,182 370,184 370,185 369,186 368,185 368,179 367,178 367,176 365,174 365,172 366,171 373,171 366,171 365,172 364,171 363,171 362,170 361,170 360,169 358,169 357,168 356,168 355,167 355,158 356,157 374,157 356,157 355,156 355,147 356,146 369,146 355,146 355,166 354,167 348,167 347,166 344,166 343,165 338,165 337,164 331,164 330,163 324,163 323,162 312,162 311,161 296,161 295,160 280,160 279,161 268,161 267,162 260,162 259,163 256,163 255,164 254,164 253,165 252,165 251,166 250,166 244,172 243,171 240,171 239,170 239,161 240,160 258,160 259,159 260,160 261,159 268,159 261,159 260,158 261,157 282,157 283,158 285,156 286,157 286,158 286,148 285,147 286,146 308,146 309,147 309,159 309,158 310,157 328,157 329,158 327,160 324,160 327,160 328,159 329,160 329,161 330,160 329,159 329,148 329,156 328,157 310,157 309,156 309,147 310,146 330,146 225,146 236,146 237,147 237,156 236,157 225,157 236,157 237,158 235,160 225,160 236,160 237,161 237,170 236,171 217,171 216,170 216,168 216,170 215,171 213,169 213,168 213,170 212,171 194,171 193,170 193,168 193,170 192,171 193,172 191,174 190,173 190,168 190,170 189,171 171,171 189,171 190,172 189,173 182,173 181,174 179,174 178,173 171,173 178,173 179,174 181,174 182,173 189,173 190,174 190,183 188,185 171,185 188,185 189,184 190,185 190,186 189,187 171,187 189,187 190,188 190,196 190,189 192,187 193,188 193,197 192,198 171,198 189,198 190,199 191,198 192,198 193,199 193,200 192,201 171,201 192,201 193,202 193,211 192,212 171,212 189,212 190,213 191,212 193,212 194,213 195,212 212,212 213,213 214,212 216,212 217,213 218,212 235,212 237,214 236,215 192,215 193,216 193,225 192,226 171,226 189,226 190,227 191,226 193,226 194,227 195,226 216,226 217,227 218,226 235,226 236,227 237,226 239,226 240,227 241,226 281,226 282,227 283,226 285,226 286,227 287,226 305,226 286,226 285,225 286,224 286,219 286,224 284,226 283,225 283,218 284,217 295,217 296,218 315,218 316,219 318,219 316,219 315,218 296,218 295,217 269,217 268,216 264,216 263,215 260,215 259,214 258,214 257,213 256,213 252,209 251,209 247,205 247,204 244,201 244,200 243,199 243,198 242,197 242,196 241,195 241,192 240,191 240,182 241,181 241,178 243,176 243,174 251,166 252,166 254,164 256,164 257,163 259,163 260,162 267,162 268,161 279,161 280,160 295,160 296,161 311,161 312,162 323,162 324,163 330,163 331,164 337,164 338,165 343,165 344,166 347,166 348,167 353,167 354,168 357,168 358,169 359,169 360,170 361,170 362,171 363,171 365,173 365,174 366,175 366,176 367,177 367,178 368,179 368,185 369,186 372,183 372,182 373,181 373,179 374,178 374,176 375,175 375,173 376,172 376,159 378,157 406,157 407,158 408,157 409,158 410,157 422,157 423,158 424,157 447,157 449,159 449,161 450,162 450,178 449,179 449,183 448,184 448,187 447,188 447,190 446,191 446,192 445,193 445,194 444,195 444,196 443,197 443,198 441,200 441,201 439,203 439,204 428,215 427,215 424,218 423,218 421,220 420,220 419,221 418,221 416,223 415,223 414,224 413,224 411,226 410,226 409,227 408,227 406,229 405,229 404,230 403,230 402,231 401,231 399,233 398,233 397,234 396,234 394,236 393,236 391,238 390,238 388,240 387,240 385,242 384,242 376,250 376,251 375,252 375,253 374,254 374,264 375,265 375,266 376,267 376,268 380,272 381,272 384,275 385,275 387,277 388,277 390,279 391,279 392,280 393,280 394,281 395,281 396,282 397,282 398,283 400,283 401,284 402,284 404,286 406,286 407,287 408,287 409,288 410,288 411,289 412,289 413,290 414,290 415,291 416,291 417,292 418,292 420,294 421,294 422,295 423,295 424,296 425,296 427,298 428,298 430,300 431,300 433,302 434,302 437,305 438,305 441,308 442,308 447,313 448,313 450,315 450,316 455,321 455,322 454,323 448,317 448,316 447,316 441,310 440,310 437,307 436,307 433,304 432,304 430,302 429,302 427,300 426,300 424,298 423,298 422,297 421,297 420,296 419,296 418,295 417,295 416,294 415,294 413,292 411,292 410,291 409,291 408,290 407,290 406,289 405,289 404,288 403,288 402,287 401,287 400,286 398,286 396,284 395,284 394,283 393,283 392,282 391,282 390,281 389,281 387,279 386,279 384,277 383,277 380,274 379,274 374,269 374,268 373,267 373,266 372,265 372,264 371,263 371,255 372,254 372,253 373,252 373,251 374,250 374,249 384,239 385,239 387,237 388,237 389,236 390,236 392,234 393,234 395,232 396,232 397,231 398,231 400,229 401,229 402,228 403,228 405,226 406,226 407,225 408,225 410,223 411,223 412,222 413,222 414,221 415,221 417,219 418,219 420,217 421,217 423,215 424,215 427,212 428,212 437,203 437,202 439,200 439,199 441,197 441,195 443,193 443,191 444,190 444,189 445,188 445,185 446,184 446,180 447,179 447,161 446,160 424,160 424,163 425,164 425,168 426,169 426,173 425,174 425,175 426,176 426,177 425,178 425,183 424,184 424,186 423,187 423,190 422,191 422,192 421,193 421,194 420,195 420,196 418,198 418,199 415,202 415,203 405,213 404,213 401,216 400,216 397,219 396,219 393,222 392,222 390,224 389,224 387,226 386,226 384,228 383,228 381,230 380,230 378,232 377,232 374,235 373,235 371,237 370,237 367,240 366,240 357,249 357,250 355,252 355,254 354,255 354,261 355,262 355,263 356,264 356,266 371,281 371,282 373,284 373,285 374,286 374,287 375,288 375,289 376,290 376,291 377,292 377,293 378,294 378,295 388,305 389,305 390,306 391,306 394,309 395,309 396,310 397,310 399,312 400,312 401,313 402,313 403,314 404,314 405,315 406,315 407,316 408,316 410,318 411,318 412,319 413,319 415,321 416,321 417,322 418,322 420,324 421,324 426,329 427,329 430,332 430,333 434,337 434,338 436,340 436,341 437,342 437,343 438,344 438,345 439,346 439,348 440,349 440,354 441,355 441,357 440,358 440,363 439,364 439,365 438,366 438,367 437,368 437,369 436,370 436,371 426,381 425,381 421,385 420,385 419,386 418,386 416,388 415,388 414,389 413,389 412,390 411,390 410,391 409,391 407,393 406,393 405,394 403,394 401,396 399,396 398,397 396,397 394,399 392,399 391,400 389,400 388,401 387,401 386,402 385,402 384,403 382,403 381,404 379,404 378,405 376,405 375,406 374,406 373,407 372,407 371,408 369,408 368,409 366,409 365,410 363,410 362,411 361,411 360,412 359,412 358,413 355,413 353,415 352,415 351,416 350,416 349,417 348,417 346,419 344,419 341,422 340,422 337,425 336,425 332,429 332,430 331,431 331,432 330,433 330,434 329,435 329,438 328,439 328,446 329,447 329,451 330,452 330,453 332,455 332,457 336,461 336,462 343,469 344,469 346,471 347,471 349,473 350,473 351,474 352,474 354,476 355,476 356,477 358,477 359,478 360,478 361,479 363,479 364,480 365,480 366,481 367,481 368,482 370,482 371,483 372,483 373,484 374,484 375,485 377,485 378,486 380,486 381,487 383,487 384,488 386,488 387,489 388,489 389,490 390,490 391,491 393,491 394,492 395,492 396,493 397,493 398,494 399,494 400,495 401,495 402,496 404,496 405,497 406,497 407,498 408,498 409,499 410,499 412,501 413,501 414,502 415,502 417,504 418,504 425,511 426,511 431,516 431,517 433,519 433,520 434,521 434,523 435,524 435,525 436,526 436,530 434,532 433,531 433,529 434,528 433,527 433,526 432,525 432,523 431,522 431,521 430,520 430,519 428,517 428,516 425,513 424,513 418,507 417,507 415,505 414,505 412,503 411,503 410,502 409,502 408,501 407,501 405,499 403,499 402,498 401,498 400,497 399,497 398,496 396,496 395,495 394,495 393,494 392,494 391,493 389,493 387,491 384,491 383,490 382,490 381,489 379,489 378,488 376,488 375,487 373,487 371,485 368,485 367,484 366,484 365,483 364,483 363,482 361,482 359,480 357,480 356,479 355,479 354,478 353,478 352,477 351,477 349,475 348,475 346,473 345,473 344,472 343,472 333,462 333,461 329,457 329,455 327,453 327,451 326,450 326,445 325,444 325,441 326,440 326,436 327,435 327,433 329,431 329,429 336,422 337,422 340,419 341,419 343,417 344,417 345,416 346,416 348,414 349,414 350,413 351,413 352,412 353,412 354,411 356,411 357,410 358,410 359,409 360,409 361,408 362,408 363,407 366,407 367,406 368,406 369,405 371,405 372,404 373,404 374,403 376,403 377,402 380,402 382,400 384,400 385,399 386,399 387,398 389,398 390,397 391,397 392,396 394,396 395,395 396,395 397,394 399,394 400,393 401,393 402,392 403,392 404,391 405,391 406,390 407,390 408,389 409,389 410,388 411,388 412,387 413,387 415,385 416,385 417,384 418,384 420,382 421,382 424,379 425,379 433,371 433,370 435,368 435,367 436,366 436,365 437,364 437,359 438,358 438,353 437,352 437,348 436,347 436,345 434,343 434,341 432,339 432,338 426,332 426,331 425,331 421,327 420,327 418,325 417,325 415,323 414,323 412,321 411,321 410,320 409,320 408,319 407,319 406,318 405,318 403,316 401,316 399,314 398,314 396,312 395,312 394,311 393,311 391,309 390,309 388,307 387,307 376,296 376,295 375,294 375,293 374,292 374,291 373,290 373,289 372,288 372,287 370,285 370,284 368,282 368,281 354,267 354,266 353,265 353,264 352,263 352,260 351,259 351,256 352,255 352,252 354,250 354,249 365,238 366,238 370,234 371,234 373,232 374,232 377,229 378,229 379,228 380,228 382,226 383,226 386,223 387,223 389,221 390,221 392,219 393,219 395,217 396,217 400,213 401,213 404,210 405,210 412,203 412,202 416,198 416,197 417,196 417,195 418,194 418,193 419,192 419,191 420,190 420,188 421,187 421,185 422,184 422,180 423,179 423,168 422,167 422,163 421,162 421,160 379,160 378,161 378,162 379,163 379,171 378,172 378,175 377,176 377,178 376,179 376,180 375,181 375,182 374,183 374,184 367,191 366,191 362,195 361,195 359,197 358,197 357,198 356,198 354,200 353,200 351,202 350,202 349,203 348,203 346,205 345,205 343,207 342,207 340,209 339,209 337,211 336,211 335,212 334,212 332,214 331,214 329,216 328,216 326,218 325,218 324,219 323,219 320,222 319,222 315,226 314,226 311,229 310,229 306,233 306,234 301,239 301,240 298,243 298,245 296,247 296,250 295,251 295,253 294,254 294,256 293,257 293,272 294,273 294,275 295,276 295,278 296,279 296,282 297,283 297,284 298,285 296,287 295,287 278,304 278,305 276,307 276,308 275,309 275,310 274,311 274,318 275,319 275,320 276,321 276,323 280,327 281,327 293,339 293,340 295,342 295,343 296,344 296,345 298,347 298,349 299,350 299,351 300,352 300,353 301,354 301,356 302,357 302,358 303,359 303,360 304,361 304,364 306,366 306,368 307,369 307,371 309,373 309,375 310,376 310,378 312,380 312,382 314,384 315,384 316,383 318,383 319,382 320,382 321,381 322,381 323,380 325,380 326,379 327,379 328,378 330,378 331,377 332,377 333,376 334,376 335,375 337,375 338,374 339,374 340,373 341,373 342,372 344,372 345,371 346,371 347,370 348,370 349,369 351,369 352,368 353,368 354,367 356,367 357,366 359,366 361,364 363,364 364,363 366,363 368,361 370,361 372,359 373,359 376,356 376,353 377,352 377,348 376,347 376,345 370,339 369,339 367,337 366,337 365,336 364,336 363,335 362,335 360,333 358,333 356,331 355,331 354,330 353,330 352,329 351,329 349,327 347,327 345,325 344,325 343,324 342,324 341,323 340,323 339,322 338,322 337,321 336,321 334,319 332,319 330,317 329,317 328,316 327,316 326,315 325,315 323,313 322,313 321,312 320,312 318,310 317,310 315,308 314,308 302,296 302,295 300,293 300,292 298,290 298,289 296,287 298,285 299,286 299,287 300,288 300,289 302,291 302,292 305,295 305,296 315,306 316,306 318,308 319,308 321,310 322,310 323,311 324,311 326,313 327,313 328,314 329,314 330,315 331,315 332,316 333,316 334,317 335,317 337,319 339,319 341,321 342,321 343,322 344,322 345,323 346,323 347,324 348,324 349,325 350,325 352,327 353,327 354,328 355,328 356,329 357,329 358,330 359,330 360,331 361,331 363,333 364,333 365,334 366,334 367,335 368,335 370,337 371,337 378,344 378,345 379,346 379,349 380,350 380,351 379,352 379,355 378,356 378,357 373,362 372,362 371,363 370,363 369,364 368,364 367,365 366,365 365,366 364,366 363,367 361,367 360,368 359,368 358,369 356,369 355,370 354,370 353,371 351,371 350,372 348,372 346,374 344,374 343,375 342,375 341,376 340,376 339,377 336,377 335,378 334,378 332,380 329,380 328,381 327,381 326,382 325,382 324,383 323,383 322,384 320,384 319,385 318,385 317,386 315,386 314,387 313,387 311,389 310,389 308,391 307,391 305,393 304,393 302,395 301,395 299,397 298,397 285,410 285,411 284,412 284,413 282,415 282,416 281,417 281,418 280,419 280,420 279,421 279,423 278,424 278,426 277,427 277,428 276,429 276,435 275,436 275,453 276,454 276,458 277,459 277,462 278,463 278,465 279,466 279,468 280,469 280,470 281,471 281,472 282,473 282,475 285,478 285,479 286,480 286,481 292,487 292,488 294,490 295,490 300,495 301,495 305,499 306,499 310,503 311,503 312,504 313,504 316,507 317,507 321,511 322,511 323,512 323,513 324,514 325,514 338,527 338,528 342,532 342,533 344,535 344,536 346,538 346,539 348,541 348,542 349,543 349,544 351,546 351,547 352,548 352,549 353,550 353,551 354,552 354,553 356,555 356,556 357,557 357,559 358,560 358,561 359,562 359,565 360,566 360,567 361,568 361,569 362,570 362,573 363,574 363,576 364,577 364,580 365,581 365,585 366,586 366,589 367,590 367,596 368,597 368,607 367,608 366,607 366,604 365,603 365,594 364,593 364,589 363,588 363,585 362,584 362,579 361,578 361,577 360,576 360,573 359,572 359,570 358,569 358,567 357,566 357,565 356,564 356,562 355,561 355,560 354,559 354,557 353,556 353,555 352,554 352,553 351,552 351,551 350,550 350,549 349,548 349,547 347,545 347,544 346,543 346,542 344,540 344,539 342,537 342,536 339,533 339,532 336,529 336,528 325,517 324,517 323,516 322,517 320,517 319,518 316,518 315,519 313,519 312,520 309,520 308,521 306,521 305,522 303,522 302,523 300,523 299,524 295,524 294,525 293,525 292,526 289,526 288,527 286,527 285,528 283,528 282,529 280,529 279,530 277,530 276,531 274,531 273,532 270,532 269,533 268,533 267,534 264,534 263,535 261,535 260,536 259,536 258,537 255,537 254,538 246,538 245,537 243,537 242,536 241,536 240,535 239,535 235,531 234,531 233,530 233,529 230,526 230,525 229,524 229,523 228,522 228,520 227,519 227,506 228,505 228,504 229,503 229,502 230,501 230,499 232,497 232,496 233,495 233,494 239,488 239,487 245,481 245,480 239,486 239,487 234,492 234,493 232,495 232,496 230,498 230,500 229,501 229,502 228,503 228,505 227,506 227,519 228,520 228,522 229,523 229,524 230,525 230,526 231,527 231,528 237,534 238,534 240,536 242,536 243,537 245,537 246,538 254,538 255,537 258,537 259,536 261,536 262,535 263,535 264,534 267,534 268,533 270,533 271,532 273,532 274,531 276,531 277,530 279,530 280,529 282,529 283,528 285,528 286,527 288,527 289,526 292,526 293,525 295,525 296,524 299,524 300,523 302,523 303,522 305,522 306,521 308,521 309,520 312,520 313,519 315,519 316,518 319,518 320,517 322,517 323,516 336,529 336,530 339,533 339,534 342,537 342,538 344,540 344,541 346,543 346,544 347,545 347,546 349,548 349,549 350,550 350,551 351,552 351,553 352,554 352,555 353,556 353,557 354,558 354,559 355,560 355,562 356,563 356,564 357,565 357,566 358,567 358,569 359,570 359,572 360,573 360,576 361,577 361,579 362,580 362,584 363,585 363,588 364,589 364,593 365,594 365,603 366,604 366,607 364,609 326,609 325,608 325,607 326,606 361,606 362,605 362,594 361,593 361,588 360,587 360,584 359,583 359,580 358,579 358,576 357,575 357,573 356,572 356,570 355,569 355,567 354,566 354,565 353,564 353,562 352,561 352,560 351,559 351,558 350,557 350,555 349,554 349,553 348,552 348,551 347,550 347,549 345,547 345,546 344,545 344,544 342,542 342,541 340,539 340,538 337,535 337,534 334,531 334,530 324,520 319,520 318,521 316,521 315,522 312,522 311,523 309,523 308,524 306,524 305,525 302,525 301,526 299,526 298,527 296,527 295,528 293,528 292,529 289,529 288,530 286,530 285,531 283,531 282,532 279,532 278,533 276,533 275,534 273,534 272,535 270,535 269,536 267,536 266,537 264,537 263,538 261,538 260,539 258,539 257,540 254,540 253,541 247,541 246,540 243,540 242,539 241,539 240,538 239,538 237,536 236,536 229,529 229,528 227,526 227,525 226,524 226,523 225,522 225,519 224,518 224,507 225,506 225,504 226,503 226,501 227,500 227,499 228,498 228,497 230,495 230,494 232,492 232,491 237,486 237,485 242,480 242,479 243,478 248,478 249,479 247,481 247,482 241,488 241,489 235,495 235,496 234,497 234,498 232,500 232,502 231,503 231,505 230,506 230,509 229,510 229,515 230,516 230,520 231,521 231,523 232,524 232,525 235,528 235,529 236,529 238,531 239,531 242,534 243,534 244,535 256,535 257,534 258,534 259,533 260,533 261,532 264,532 265,531 267,531 268,530 270,530 271,529 273,529 274,528 276,528 277,527 279,527 280,526 283,526 284,525 285,525 286,524 289,524 290,523 292,523 293,522 296,522 297,521 300,521 301,520 302,520 303,519 304,519 305,518 309,518 310,517 313,517 314,516 316,516 317,515 320,515 320,513 316,509 315,509 312,506 310,506 305,501 304,501 301,498 300,498 295,493 294,493 290,489 290,488 284,482 284,481 282,479 282,478 280,476 280,475 279,474 279,473 278,472 278,471 277,470 277,468 276,467 276,465 275,464 275,463 274,462 274,459 273,458 273,453 272,452 272,436 273,435 273,431 274,430 274,427 275,426 275,424 276,423 276,421 278,419 278,418 279,417 279,416 280,415 280,414 282,412 282,410 298,394 299,394 301,392 302,392 304,390 305,390 307,388 308,388 309,387 310,387 310,386 311,385 311,384 310,383 310,382 309,381 309,380 307,378 307,376 306,375 306,373 305,372 305,371 304,370 304,368 303,367 303,366 302,365 302,364 301,363 301,360 299,358 299,356 298,355 298,353 296,351 296,349 295,348 295,347 294,346 294,345 293,344 293,343 290,340 290,339 280,329 279,329 274,324 274,323 273,322 273,321 272,320 272,318 271,317 271,312 272,311 272,309 273,308 273,307 276,304 276,303 293,286 293,285 294,284 294,282 293,281 293,278 292,277 292,275 291,274 291,271 290,270 290,259 291,258 291,254 292,253 292,251 293,250 293,248 294,247 294,246 296,244 296,242 299,239 299,238 302,235 302,234 310,226 311,226 314,223 315,223 317,221 316,221 314,223 313,223 309,227 308,227 307,228 307,229 306,230 305,230 304,229 171,229 192,229 193,230 193,239 192,240 193,241 193,242 192,243 191,243 190,242 190,231 190,239 189,240 171,240 189,240 190,241 190,242 189,243 171,243 192,243 193,244 193,253 192,254 190,252 190,245 190,252 191,253 190,254 171,254 189,254 190,255 190,256 189,257 171,257 189,257 190,258 190,265 190,258 191,257 192,257 193,258 193,266 193,257 194,256 195,257 215,257 216,258 216,267 215,268 213,266 213,259 213,267 212,268 194,268 212,268 213,269 212,270 194,270 193,271 192,270 192,269 191,269 190,268 189,268 188,267 187,267 186,266 184,266 183,265 171,265 183,265 184,266 185,266 186,267 188,267 189,268 190,268 193,271 193,272 194,273 194,274 196,276 196,278 197,279 197,280 198,281 198,282 199,283 199,287 200,288 200,290 201,291 201,298 200,299 200,301 199,302 199,305 198,306 198,307 197,308 197,310 196,311 196,312 195,313 195,314 194,315 194,318 193,319 193,330 194,331 194,333 195,334 195,335 196,336 196,337 201,342 202,342 204,344 207,344 208,345 217,345 218,346 223,346 224,347 226,347 227,348 228,348 229,349 230,349 233,352 234,352 235,353 235,354 239,358 239,360 240,361 240,363 241,364 241,365 243,367 243,369 244,370 244,371 246,373 246,375 247,376 247,377 248,378 248,380 249,381 249,386 248,387 248,391 247,392 247,393 245,395 245,396 243,398 243,399 239,403 239,404 238,405 240,407 241,406 281,406 261,406 260,405 260,396 261,395 282,395 283,396 283,404 283,396 284,395 293,395 248,395 247,394 247,392 248,391 249,392 258,392 259,393 260,392 262,392 263,393 264,392 281,392 282,393 283,392 285,392 286,393 287,392 296,392 284,392 283,391 283,382 284,381 286,383 286,390 286,382 287,381 306,381 287,381 286,380 286,379 287,378 304,378 287,378 286,377 286,369 285,368 286,367 301,367 302,366 303,367 303,368 304,369 304,370 305,371 305,373 306,374 306,375 307,376 307,378 306,379 307,378 308,379 308,380 309,381 309,382 311,384 311,385 309,387 308,387 307,388 306,388 304,390 303,390 301,392 300,392 296,396 295,396 287,404 286,403 286,397 286,403 287,404 284,407 284,408 282,410 281,409 239,409 239,419 238,420 237,419 237,410 236,409 236,408 237,407 235,409 235,411 234,412 234,414 233,415 233,426 234,427 234,429 235,430 235,431 241,437 246,437 247,438 248,438 250,440 250,475 249,476 249,477 248,478 242,478 242,479 239,482 239,483 232,490 232,491 230,493 230,494 229,495 229,496 227,498 227,500 226,501 226,503 225,504 225,505 224,506 224,518 225,519 225,522 226,523 226,525 228,527 228,528 230,530 230,531 234,535 235,535 238,538 240,538 241,539 242,539 243,540 246,540 247,541 253,541 254,540 257,540 258,539 260,539 261,538 263,538 264,537 266,537 267,536 269,536 270,535 273,535 274,534 275,534 276,533 278,533 279,532 282,532 283,531 285,531 286,530 288,530 289,529 292,529 293,528 295,528 296,527 298,527 299,526 301,526 302,525 305,525 306,524 309,524 310,523 311,523 312,522 315,522 316,521 319,521 320,520 323,520 334,531 334,532 338,536 338,537 340,539 340,540 342,542 342,543 344,545 344,546 345,547 345,548 347,550 347,551 348,552 348,553 349,554 349,555 350,556 350,557 351,558 351,560 353,562 353,564 354,565 354,567 355,568 355,569 356,570 356,572 357,573 357,575 358,576 358,579 359,580 359,583 360,584 360,587 361,588 361,593 362,594 362,604 360,606 324,606 323,605 323,603 322,602 322,566 321,565 321,561 320,560 320,559 319,558 319,557 316,554 316,553 314,551 313,551 311,549 310,549 309,548 308,548 307,547 305,547 304,546 288,546 287,547 286,547 285,548 283,548 282,549 280,549 279,550 278,550 277,551 275,551 273,553 272,553 270,555 269,555 267,557 266,557 264,559 263,559 261,561 260,561 259,562 257,562 256,563 253,563 252,564 243,564 242,563 237,563 236,562 233,562 232,561 231,561 230,560 228,560 227,559 225,559 223,557 222,557 221,556 220,556 219,555 218,555 216,553 215,553 206,544 206,543 204,541 204,540 202,538 202,536 201,535 201,533 200,532 200,528 199,527 199,524 200,523 200,518 201,517 201,514 202,513 202,509 203,508 203,504 204,503 204,496 205,495 205,488 204,487 204,479 205,478 206,479 207,478 240,478 169,478 168,479 167,478 168,479 168,608 169,609 322,609 322,607 323,606 324,606 325,607 325,609 365,609 366,608 368,608 369,609 381,609 381,603 380,602 380,596 379,595 379,591 378,590 378,586 377,585 377,583 376,582 376,578 375,577 375,574 374,573 374,571 373,570 373,567 372,566 372,565 371,564 371,562 370,561 370,559 369,558 369,557 368,556 368,554 367,553 367,552 366,551 366,550 365,549 365,547 364,546 364,545 363,544 363,543 362,542 362,541 360,539 360,538 359,537 359,536 358,535 358,534 355,531 355,530 353,528 353,527 338,512 337,512 333,508 332,508 328,504 327,504 325,502 324,502 321,499 320,499 317,496 316,496 313,493 312,493 307,488 306,488 298,480 298,479 295,476 295,475 293,473 293,472 291,470 291,469 290,468 290,467 289,466 289,464 288,463 288,462 287,461 287,457 286,456 286,454 285,453 285,439 286,438 286,434 287,433 287,430 288,429 288,427 290,425 290,424 291,423 291,422 292,421 292,420 293,419 293,418 296,415 296,414 303,407 304,407 309,402 310,402 313,399 314,399 315,398 316,398 317,397 318,397 320,395 321,395 322,394 323,394 324,393 325,393 326,392 327,392 328,391 329,391 331,389 333,389 334,388 335,388 336,387 337,387 338,386 339,386 340,385 342,385 343,384 344,384 345,383 346,383 347,382 349,382 350,381 352,381 353,380 354,380 355,379 357,379 358,378 359,378 360,377 362,377 363,376 364,376 365,375 366,375 367,374 368,374 369,373 370,373 371,372 372,372 373,371 374,371 376,369 377,369 378,368 379,368 382,365 383,365 384,364 384,363 387,360 387,359 388,358 388,357 389,356 389,348 388,347 388,345 387,344 387,343 385,341 385,340 380,335 379,335 375,331 374,331 373,330 372,330 369,327 368,327 367,326 366,326 365,325 364,325 362,323 361,323 360,322 359,322 357,320 356,320 355,319 354,319 352,317 351,317 350,316 348,316 347,315 346,315 345,314 344,314 343,313 342,313 340,311 338,311 336,309 335,309 334,308 332,308 329,305 328,305 326,303 325,303 322,300 321,300 314,293 314,292 312,290 312,289 311,288 311,287 309,285 309,283 308,282 308,281 307,280 307,277 306,276 306,272 305,271 305,265 306,264 306,258 307,257 307,255 308,254 308,253 309,252 309,250 310,249 310,248 311,247 311,246 313,244 313,243 317,239 317,238 321,234 322,234 328,228 329,228 332,225 333,225 335,223 336,223 338,221 339,221 342,218 343,218 344,217 345,217 347,215 348,215 349,214 350,214 351,213 352,213 355,210 357,210 359,208 360,208 361,207 362,207 363,206 364,206 366,204 367,204 368,203 370,203 372,201 373,201 374,200 376,200 378,198 379,198 380,197 381,197 383,195 384,195 385,194 386,194 388,192 389,192 392,189 393,189 399,183 399,182 400,181 400,180 402,178 402,177 403,176 403,174 404,173 404,171 405,170 405,168 406,167 406,162 408,160 409,161 409,166 408,167 408,170 407,171 407,172 406,173 406,176 404,178 404,179 403,180 403,181 401,183 401,184 394,191 393,191 390,194 389,194 386,197 385,197 384,198 383,198 382,199 381,199 379,201 378,201 377,202 376,202 375,203 374,203 373,204 372,204 371,205 370,205 369,206 368,206 367,207 366,207 365,208 364,208 363,209 362,209 360,211 359,211 358,212 357,212 355,214 354,214 352,216 350,216 348,218 347,218 346,219 345,219 343,221 342,221 340,223 339,223 337,225 336,225 334,227 333,227 329,231 328,231 316,243 316,244 314,246 314,247 313,248 313,249 312,250 312,251 311,252 311,253 310,254 310,256 309,257 309,263 308,264 308,272 309,273 309,277 310,278 310,280 311,281 311,282 312,283 312,285 313,286 313,287 315,289 315,290 318,293 318,294 321,297 322,297 326,301 327,301 328,302 329,302 331,304 332,304 334,306 335,306 336,307 337,307 338,308 339,308 340,309 341,309 342,310 343,310 344,311 345,311 346,312 347,312 348,313 349,313 350,314 351,314 352,315 353,315 354,316 355,316 357,318 358,318 359,319 360,319 361,320 362,320 364,322 365,322 366,323 367,323 369,325 370,325 372,327 373,327 374,328 375,328 379,332 380,332 388,340 388,341 390,343 390,345 391,346 391,347 392,348 392,355 391,356 391,358 390,359 390,360 388,362 388,363 383,368 382,368 379,371 378,371 376,373 375,373 374,374 373,374 372,375 371,375 370,376 369,376 368,377 366,377 365,378 364,378 363,379 362,379 361,380 359,380 358,381 357,381 356,382 355,382 354,383 351,383 349,385 347,385 346,386 344,386 342,388 340,388 339,389 338,389 337,390 336,390 335,391 333,391 332,392 331,392 329,394 327,394 326,395 325,395 324,396 323,396 321,398 320,398 319,399 318,399 317,400 316,400 314,402 313,402 311,404 310,404 305,409 304,409 299,414 299,415 296,418 296,419 294,421 294,422 293,423 293,424 292,425 292,426 291,427 291,428 290,429 290,432 289,433 289,437 288,438 288,454 289,455 289,458 290,459 290,462 291,463 291,464 292,465 292,466 293,467 293,468 294,469 294,470 296,472 296,473 297,474 297,475 301,479 301,480 306,485 307,485 313,491 314,491 317,494 318,494 320,496 321,496 324,499 325,499 328,502 329,502 332,505 333,505 336,508 337,508 343,514 344,514 350,520 350,521 352,523 353,523 354,524 354,525 356,527 356,528 358,530 358,531 361,534 361,536 363,538 363,539 365,541 365,543 367,545 367,546 368,547 368,549 369,550 369,551 370,552 370,553 371,554 371,556 372,557 372,558 373,559 373,562 374,563 374,564 375,565 375,567 376,568 376,570 377,571 377,573 378,574 378,577 379,578 379,582 380,583 380,585 381,586 381,590 382,591 382,596 383,597 383,604 384,605 384,609 441,609 441,607 440,607 435,602 435,601 427,593 427,592 426,591 426,590 422,586 422,584 421,583 421,581 420,580 420,578 419,577 419,573 418,572 418,570 419,569 419,564 420,563 420,561 421,560 421,559 422,558 422,557 424,555 424,554 426,552 426,551 428,549 428,548 429,547 429,546 431,544 431,542 432,541 432,539 433,538 433,533 435,531 436,532 436,538 435,539 435,540 434,541 434,543 433,544 433,545 432,546 432,547 430,549 430,550 428,552 428,553 426,555 426,556 424,558 424,560 423,561 423,563 422,564 422,567 421,568 421,574 422,575 422,578 423,579 423,581 424,582 424,583 425,584 425,585 426,586 426,587 428,589 428,590 430,592 430,593 440,603 440,604 441,604 443,606 443,607 445,609 466,609 467,610 466,611 456,611 455,612 454,612 453,611 449,611 448,612 447,612 446,611 445,612 444,611 441,611 440,612 386,612 385,611 381,611 380,612 371,612 370,611 364,611 363,612 327,612 326,611 321,611 320,612 175,612 174,611 173,611 172,612 171,612 172,612 173,611 174,611 175,612 320,612 321,611 326,611 327,612 363,612 364,611 370,611 371,612 380,612 381,611 385,611 386,612 440,612 441,611 444,611 445,612 446,611 447,612 448,612 449,611 453,611 454,612 455,612 456,611 466,611 468,613 468,614 469,615 469,618 470,619 470,620 469,621 462,621 461,622 460,622 459,621 452,621 451,622 450,622 449,621 448,622 447,621 447,614 447,620 446,621 445,620 445,614 445,621 444,622 443,621 442,622 441,622 440,621 436,621 435,622 434,621 426,621 425,622 424,621 424,614 424,620 423,621 422,621 421,620 421,614 421,621 420,622 419,621 415,621 414,622 404,622 403,621 402,622 401,621 401,614 401,634 419,634 402,634 401,633 401,625 402,624 421,624 422,625 421,626 421,637 422,638 421,639 422,638 422,637 421,636 421,635 422,634 421,633 421,626 423,624 424,625 424,639 424,638 425,637 444,637 445,638 445,639 445,638 446,637 447,638 447,639 447,638 448,637 467,637 468,638 467,639 469,637 470,638 471,637 472,637 471,637 470,636 470,630 470,633 469,634 467,632 467,626 469,624 470,624 472,626 472,630 473,631 473,635 474,636 474,638 475,639 475,640 474,641 473,641 472,642 433,642 432,641 332,641 331,642 330,642 330,644 329,645 329,652 330,653 330,654 328,656 325,656 324,657 313,657 312,658 300,658 299,659 285,659 284,660 273,660 272,661 260,661 259,662 247,662 246,663 234,663 233,664 221,664 220,665 207,665 206,666 193,666 192,667 180,667 179,668 168,668 168,671 166,673 160,673 159,674 153,674 151,672 151,655 152,654 153,654 154,653 158,653 159,654 164,654 165,653 168,656 168,658 167,659 167,661 168,662 168,663 170,665 169,666 170,665 170,664 171,663 175,663 176,662 185,662 186,661 192,661 193,660 210,660 211,659 226,659 227,658 238,658 239,657 255,657 256,656 269,656 270,655 282,655 283,654 287,654 288,655 289,655 290,654 300,654 301,653 314,653 315,652 327,652 315,652 314,653 301,653 300,654 290,654 289,655 288,655 287,654 283,654 282,655 270,655 269,656 256,656 255,657 239,657 238,658 237,657 236,658 227,658 226,659 211,659 210,660 193,660 192,661 186,661 185,662 176,662 175,663 169,663 167,661 167,659 168,658 168,656 167,655 167,654 166,654 165,653 164,654 159,654 158,653 154,653 153,654 151,654 151,673 152,673 153,674 159,674 160,673 183,673 184,672 195,672 196,671 209,671 210,670 223,670 224,669 235,669 236,668 249,668 250,667 264,667 265,666 275,666 276,665 291,665 292,664 303,664 304,663 316,663 317,662 328,662 329,661 330,661 331,660 332,660 333,661 334,660 345,660 346,659 357,659 358,658 373,658 374,657 384,657 385,656 399,656 400,655 415,655 416,654 426,654 427,653 441,653 442,652 455,652 456,651 467,651 468,650 475,650 476,651 476,652 475,653 476,654 476,659 475,660 475,662 476,663 476,676 477,675 485,675 486,674 486,651 487,650 578,650 579,651 608,651 579,651 578,650 578,649 579,648 609,648 610,649 610,673 611,674 611,675 619,675 619,475 620,474 620,273 619,272 619,21 618,20 610,20 609,19 Z" fill="none" stroke="black" stroke-width="1"/>
  <path d="M 86,19 L 85,20 84,20 84,22 83,23 83,32 82,33 81,32 78,32 77,33 76,32 76,21 75,20 73,20 73,675 76,675 76,660 77,659 82,659 83,660 83,670 84,671 84,675 86,675 86,674 87,673 93,673 94,674 94,675 95,674 96,675 96,674 97,673 97,660 98,659 103,659 105,661 105,675 105,660 104,659 104,657 105,656 105,632 104,631 104,629 105,628 105,618 104,617 104,615 105,614 105,590 104,589 104,587 105,586 105,562 104,561 104,559 105,558 105,534 104,533 103,534 97,534 97,544 96,545 96,547 95,548 92,548 91,547 87,547 86,546 87,545 94,545 94,535 95,534 95,533 94,532 95,531 94,530 94,521 95,520 96,520 97,521 97,532 98,531 104,531 105,530 105,506 95,506 94,505 94,504 95,503 105,503 105,479 104,478 104,476 105,475 105,451 104,450 104,448 105,447 105,423 96,423 95,422 95,421 96,420 105,420 105,395 95,395 94,394 94,393 95,392 105,392 105,368 104,367 104,365 105,364 105,342 105,363 103,365 98,365 97,364 97,354 96,353 97,352 96,351 97,350 97,341 98,340 105,340 95,340 94,339 94,338 95,337 104,337 105,336 105,313 104,312 96,312 94,310 94,299 95,298 96,298 97,299 97,308 96,309 105,309 105,285 104,284 97,284 97,294 96,295 96,297 95,298 85,298 84,297 84,295 83,294 83,271 84,270 85,270 86,271 86,295 87,296 88,295 92,295 93,296 94,295 94,285 95,284 94,283 96,281 103,281 104,282 105,281 105,257 104,256 104,254 105,253 105,230 104,229 95,229 94,228 94,227 95,226 94,225 94,215 85,215 84,214 84,213 85,212 86,212 87,213 88,212 95,212 96,213 96,215 97,216 97,226 105,226 105,202 104,201 97,201 97,211 96,212 95,212 94,211 94,202 95,201 94,200 94,186 93,185 94,184 95,184 97,186 96,187 97,188 97,198 103,198 104,199 105,198 105,174 104,173 104,171 105,170 105,147 104,146 95,146 94,145 94,144 95,143 105,143 105,119 104,118 97,118 97,128 96,129 95,129 94,128 94,119 95,118 94,117 94,116 95,115 94,114 94,105 95,104 96,104 97,105 97,115 98,116 99,115 103,115 104,116 105,115 105,91 104,90 98,90 97,89 98,88 104,88 105,87 105,64 104,63 95,63 94,62 94,61 95,60 105,60 105,36 104,35 104,33 105,32 105,21 107,19 116,19 118,21 118,32 119,33 117,35 116,34 116,32 115,31 115,24 116,23 115,22 108,22 107,23 107,46 108,47 109,46 114,46 115,47 115,48 114,49 108,49 107,50 107,74 115,74 115,65 117,63 118,64 118,88 124,88 125,89 124,90 119,90 118,91 118,115 119,116 120,115 124,115 125,116 125,117 124,118 118,118 118,142 117,143 115,141 115,134 116,133 115,132 108,132 107,133 107,157 115,157 116,156 115,155 115,148 116,147 116,144 117,143 124,143 125,144 125,145 124,146 118,146 118,171 119,172 119,173 118,174 118,198 119,199 120,198 124,198 125,199 125,200 124,201 118,201 118,226 124,226 125,227 126,226 119,226 118,225 118,202 119,201 124,201 126,203 126,224 126,202 125,201 125,199 126,198 125,197 126,196 126,176 125,175 126,174 125,173 125,171 126,170 126,148 126,169 124,171 119,171 118,170 118,147 119,146 126,146 125,145 125,144 126,143 119,143 118,142 118,119 119,118 124,118 126,120 126,141 126,119 125,118 125,116 126,115 126,93 125,92 126,91 125,90 125,88 126,87 126,64 125,63 117,63 116,62 116,59 115,58 115,46 108,46 107,45 107,24 109,22 114,22 115,23 115,31 116,32 116,36 115,37 115,44 115,37 117,35 118,36 118,48 117,49 118,50 118,60 124,60 125,61 126,60 119,60 118,59 118,36 119,35 124,35 126,37 126,58 126,36 125,35 125,33 126,32 125,31 126,30 126,21 128,19 137,19 139,21 139,32 140,33 138,35 137,34 137,32 136,31 136,22 129,22 128,23 128,46 129,47 129,48 128,49 128,74 129,75 129,76 128,77 128,101 129,102 129,104 128,105 128,129 129,130 130,129 134,129 129,129 128,128 128,106 130,104 135,104 136,105 136,114 137,115 137,119 136,120 136,131 135,132 128,132 128,157 136,157 137,156 136,155 136,147 137,146 138,146 139,147 139,170 138,171 137,171 136,170 136,160 136,170 137,171 137,174 136,175 136,184 135,185 130,185 128,183 128,161 129,160 134,160 130,160 129,159 128,160 128,184 129,185 128,186 129,187 128,188 128,212 129,213 130,212 134,212 129,212 128,211 128,189 130,187 135,187 136,188 136,197 137,198 137,202 136,203 136,214 135,215 128,215 128,240 129,241 129,242 128,243 128,267 129,268 129,270 128,271 128,295 129,296 129,297 128,298 128,323 136,323 136,313 137,312 137,309 136,308 136,286 138,284 139,285 139,309 147,309 147,285 148,284 148,283 148,284 147,285 146,284 146,282 147,281 147,271 148,270 147,269 147,257 148,256 147,257 146,256 146,254 147,253 148,254 147,253 147,230 148,229 147,230 146,229 138,229 137,228 137,226 136,225 136,203 138,201 139,202 139,226 140,227 141,226 145,226 146,227 147,226 147,202 148,201 147,202 146,201 138,201 137,200 137,198 136,197 136,175 137,174 138,174 139,175 139,198 140,199 141,198 145,198 146,199 147,198 140,198 139,197 139,174 140,173 145,173 147,175 147,196 147,174 148,173 147,174 146,173 146,171 147,170 148,171 147,170 147,146 138,146 137,145 137,143 136,142 136,134 137,133 136,132 136,120 138,118 139,119 139,143 140,144 141,143 147,143 147,119 148,118 147,119 146,118 141,118 140,117 140,116 141,115 145,115 146,116 147,115 140,115 139,114 139,91 140,90 145,90 147,92 147,113 147,91 148,90 147,91 146,90 146,88 147,87 148,88 147,87 147,63 139,63 139,90 138,91 137,90 137,87 136,86 136,77 130,77 129,76 129,75 130,74 136,74 137,73 136,72 136,65 137,64 137,60 136,59 136,37 138,35 139,36 139,60 140,61 141,60 147,60 147,36 146,35 146,33 147,32 148,33 147,32 147,21 148,20 147,20 147,31 145,33 142,33 141,32 140,32 139,31 139,20 138,20 137,19 128,19 127,20 126,20 126,30 123,33 121,33 120,32 119,32 118,31 118,20 117,20 116,19 106,19 105,20 105,31 104,32 103,32 102,33 100,33 99,32 100,33 102,33 103,32 104,33 104,34 103,35 98,35 97,34 97,45 96,46 96,48 95,49 87,49 86,48 88,46 92,46 93,47 94,46 94,36 95,35 94,34 95,33 95,32 94,31 94,22 86,22 86,34 85,35 86,36 86,46 87,47 85,49 84,48 84,46 83,45 83,23 84,22 84,21 86,19 94,19 96,21 96,22 97,23 97,32 97,23 96,22 96,20 95,20 94,19 Z" fill="none" stroke="black" stroke-width="1"/>
</svg>